M48
; DRILL file {KiCad 5.1.5+dfsg1-2build2} date Wed 23 Sep 2020 11:02:28 AM EDT
; FORMAT={-:-/ absolute / inch / decimal}
; #@! TF.CreationDate,2020-09-23T11:02:28-04:00
; #@! TF.GenerationSoftware,Kicad,Pcbnew,5.1.5+dfsg1-2build2
; #@! TF.FileFunction,Plated,1,2,PTH
FMAT,2
INCH
T1C0.0157
T2C0.0394
T3C0.0800
%
G90
G05
T1
X4.252Y-5.0984
X5.0984Y-5.0394
X5.3593Y-4.6841
X5.374Y-5.0394
X5.374Y-5.1378
X5.7087Y-4.3307
X5.7382Y-4.9409
X5.8071Y-5.1969
X5.8366Y-4.813
X6.0551Y-4.8031
X6.063Y-4.7047
X6.3386Y-4.7638
X6.437Y-4.626
X6.6535Y-4.4685
X6.8504Y-5.0394
X6.9094Y-4.7835
X7.0079Y-5.0197
X7.185Y-4.9803
X7.2441Y-4.7441
X7.2736Y-4.3898
X7.4409Y-4.3898
X7.4803Y-4.4094
X7.5394Y-5.1575
X7.74Y-4.82
X7.8543Y-5.0394
T2
X6.6142Y-4.3701
X6.7642Y-4.3701
X6.9142Y-4.3701
X7.0642Y-4.3701
T3
X4.4Y-4.56
X4.7Y-4.56
X7.6433Y-4.56
X7.9433Y-4.56
T0
M30
