G04 #@! TF.GenerationSoftware,KiCad,Pcbnew,5.1.5+dfsg1-2build2*
G04 #@! TF.CreationDate,2020-09-23T11:02:05-04:00*
G04 #@! TF.ProjectId,Wifi_Geiger,57696669-5f47-4656-9967-65722e6b6963,rev?*
G04 #@! TF.SameCoordinates,Original*
G04 #@! TF.FileFunction,Soldermask,Top*
G04 #@! TF.FilePolarity,Negative*
%FSLAX46Y46*%
G04 Gerber Fmt 4.6, Leading zero omitted, Abs format (unit mm)*
G04 Created by KiCad (PCBNEW 5.1.5+dfsg1-2build2) date 2020-09-23 11:02:05*
%MOMM*%
%LPD*%
G04 APERTURE LIST*
%ADD10C,0.100000*%
G04 APERTURE END LIST*
D10*
G36*
X131851000Y-132151000D02*
G01*
X130549000Y-132151000D01*
X130549000Y-130849000D01*
X131851000Y-130849000D01*
X131851000Y-132151000D01*
G37*
G36*
X111613062Y-130078181D02*
G01*
X111647981Y-130088774D01*
X111680163Y-130105976D01*
X111708373Y-130129127D01*
X111731524Y-130157337D01*
X111748726Y-130189519D01*
X111759319Y-130224438D01*
X111763500Y-130266895D01*
X111763500Y-131733105D01*
X111759319Y-131775562D01*
X111748726Y-131810481D01*
X111731524Y-131842663D01*
X111708373Y-131870873D01*
X111680163Y-131894024D01*
X111647981Y-131911226D01*
X111613062Y-131921819D01*
X111570605Y-131926000D01*
X110429395Y-131926000D01*
X110386938Y-131921819D01*
X110352019Y-131911226D01*
X110319837Y-131894024D01*
X110291627Y-131870873D01*
X110268476Y-131842663D01*
X110251274Y-131810481D01*
X110240681Y-131775562D01*
X110236500Y-131733105D01*
X110236500Y-130266895D01*
X110240681Y-130224438D01*
X110251274Y-130189519D01*
X110268476Y-130157337D01*
X110291627Y-130129127D01*
X110319837Y-130105976D01*
X110352019Y-130088774D01*
X110386938Y-130078181D01*
X110429395Y-130074000D01*
X111570605Y-130074000D01*
X111613062Y-130078181D01*
G37*
G36*
X108638062Y-130078181D02*
G01*
X108672981Y-130088774D01*
X108705163Y-130105976D01*
X108733373Y-130129127D01*
X108756524Y-130157337D01*
X108773726Y-130189519D01*
X108784319Y-130224438D01*
X108788500Y-130266895D01*
X108788500Y-131733105D01*
X108784319Y-131775562D01*
X108773726Y-131810481D01*
X108756524Y-131842663D01*
X108733373Y-131870873D01*
X108705163Y-131894024D01*
X108672981Y-131911226D01*
X108638062Y-131921819D01*
X108595605Y-131926000D01*
X107454395Y-131926000D01*
X107411938Y-131921819D01*
X107377019Y-131911226D01*
X107344837Y-131894024D01*
X107316627Y-131870873D01*
X107293476Y-131842663D01*
X107276274Y-131810481D01*
X107265681Y-131775562D01*
X107261500Y-131733105D01*
X107261500Y-130266895D01*
X107265681Y-130224438D01*
X107276274Y-130189519D01*
X107293476Y-130157337D01*
X107316627Y-130129127D01*
X107344837Y-130105976D01*
X107377019Y-130088774D01*
X107411938Y-130078181D01*
X107454395Y-130074000D01*
X108595605Y-130074000D01*
X108638062Y-130078181D01*
G37*
G36*
X127170000Y-131820000D02*
G01*
X125730000Y-131820000D01*
X125730000Y-131080000D01*
X127170000Y-131080000D01*
X127170000Y-131820000D01*
G37*
G36*
X114788062Y-130228181D02*
G01*
X114822981Y-130238774D01*
X114855163Y-130255976D01*
X114883373Y-130279127D01*
X114906524Y-130307337D01*
X114923726Y-130339519D01*
X114934319Y-130374438D01*
X114938500Y-130416895D01*
X114938500Y-131558105D01*
X114934319Y-131600562D01*
X114923726Y-131635481D01*
X114906524Y-131667663D01*
X114883373Y-131695873D01*
X114855163Y-131719024D01*
X114822981Y-131736226D01*
X114788062Y-131746819D01*
X114745605Y-131751000D01*
X113279395Y-131751000D01*
X113236938Y-131746819D01*
X113202019Y-131736226D01*
X113169837Y-131719024D01*
X113141627Y-131695873D01*
X113118476Y-131667663D01*
X113101274Y-131635481D01*
X113090681Y-131600562D01*
X113086500Y-131558105D01*
X113086500Y-130416895D01*
X113090681Y-130374438D01*
X113101274Y-130339519D01*
X113118476Y-130307337D01*
X113141627Y-130279127D01*
X113169837Y-130255976D01*
X113202019Y-130238774D01*
X113236938Y-130228181D01*
X113279395Y-130224000D01*
X114745605Y-130224000D01*
X114788062Y-130228181D01*
G37*
G36*
X117701000Y-131601000D02*
G01*
X116499000Y-131601000D01*
X116499000Y-130399000D01*
X117701000Y-130399000D01*
X117701000Y-131601000D01*
G37*
G36*
X120501000Y-131601000D02*
G01*
X119299000Y-131601000D01*
X119299000Y-130399000D01*
X120501000Y-130399000D01*
X120501000Y-131601000D01*
G37*
G36*
X152651000Y-131591000D02*
G01*
X150549000Y-131591000D01*
X150549000Y-129789000D01*
X152651000Y-129789000D01*
X152651000Y-131591000D01*
G37*
G36*
X161551000Y-131591000D02*
G01*
X159449000Y-131591000D01*
X159449000Y-129789000D01*
X161551000Y-129789000D01*
X161551000Y-131591000D01*
G37*
G36*
X194914499Y-130478445D02*
G01*
X194951995Y-130489820D01*
X194986554Y-130508292D01*
X195016847Y-130533153D01*
X195041708Y-130563446D01*
X195060180Y-130598005D01*
X195071555Y-130635501D01*
X195076000Y-130680638D01*
X195076000Y-131319362D01*
X195071555Y-131364499D01*
X195060180Y-131401995D01*
X195041708Y-131436554D01*
X195016847Y-131466847D01*
X194986554Y-131491708D01*
X194951995Y-131510180D01*
X194914499Y-131521555D01*
X194869362Y-131526000D01*
X194130638Y-131526000D01*
X194085501Y-131521555D01*
X194048005Y-131510180D01*
X194013446Y-131491708D01*
X193983153Y-131466847D01*
X193958292Y-131436554D01*
X193939820Y-131401995D01*
X193928445Y-131364499D01*
X193924000Y-131319362D01*
X193924000Y-130680638D01*
X193928445Y-130635501D01*
X193939820Y-130598005D01*
X193958292Y-130563446D01*
X193983153Y-130533153D01*
X194013446Y-130508292D01*
X194048005Y-130489820D01*
X194085501Y-130478445D01*
X194130638Y-130474000D01*
X194869362Y-130474000D01*
X194914499Y-130478445D01*
G37*
G36*
X193164499Y-130478445D02*
G01*
X193201995Y-130489820D01*
X193236554Y-130508292D01*
X193266847Y-130533153D01*
X193291708Y-130563446D01*
X193310180Y-130598005D01*
X193321555Y-130635501D01*
X193326000Y-130680638D01*
X193326000Y-131319362D01*
X193321555Y-131364499D01*
X193310180Y-131401995D01*
X193291708Y-131436554D01*
X193266847Y-131466847D01*
X193236554Y-131491708D01*
X193201995Y-131510180D01*
X193164499Y-131521555D01*
X193119362Y-131526000D01*
X192380638Y-131526000D01*
X192335501Y-131521555D01*
X192298005Y-131510180D01*
X192263446Y-131491708D01*
X192233153Y-131466847D01*
X192208292Y-131436554D01*
X192189820Y-131401995D01*
X192178445Y-131364499D01*
X192174000Y-131319362D01*
X192174000Y-130680638D01*
X192178445Y-130635501D01*
X192189820Y-130598005D01*
X192208292Y-130563446D01*
X192233153Y-130533153D01*
X192263446Y-130508292D01*
X192298005Y-130489820D01*
X192335501Y-130478445D01*
X192380638Y-130474000D01*
X193119362Y-130474000D01*
X193164499Y-130478445D01*
G37*
G36*
X196664499Y-130478445D02*
G01*
X196701995Y-130489820D01*
X196736554Y-130508292D01*
X196766847Y-130533153D01*
X196791708Y-130563446D01*
X196810180Y-130598005D01*
X196821555Y-130635501D01*
X196826000Y-130680638D01*
X196826000Y-131319362D01*
X196821555Y-131364499D01*
X196810180Y-131401995D01*
X196791708Y-131436554D01*
X196766847Y-131466847D01*
X196736554Y-131491708D01*
X196701995Y-131510180D01*
X196664499Y-131521555D01*
X196619362Y-131526000D01*
X195880638Y-131526000D01*
X195835501Y-131521555D01*
X195798005Y-131510180D01*
X195763446Y-131491708D01*
X195733153Y-131466847D01*
X195708292Y-131436554D01*
X195689820Y-131401995D01*
X195678445Y-131364499D01*
X195674000Y-131319362D01*
X195674000Y-130680638D01*
X195678445Y-130635501D01*
X195689820Y-130598005D01*
X195708292Y-130563446D01*
X195733153Y-130533153D01*
X195763446Y-130508292D01*
X195798005Y-130489820D01*
X195835501Y-130478445D01*
X195880638Y-130474000D01*
X196619362Y-130474000D01*
X196664499Y-130478445D01*
G37*
G36*
X198414499Y-130478445D02*
G01*
X198451995Y-130489820D01*
X198486554Y-130508292D01*
X198516847Y-130533153D01*
X198541708Y-130563446D01*
X198560180Y-130598005D01*
X198571555Y-130635501D01*
X198576000Y-130680638D01*
X198576000Y-131319362D01*
X198571555Y-131364499D01*
X198560180Y-131401995D01*
X198541708Y-131436554D01*
X198516847Y-131466847D01*
X198486554Y-131491708D01*
X198451995Y-131510180D01*
X198414499Y-131521555D01*
X198369362Y-131526000D01*
X197630638Y-131526000D01*
X197585501Y-131521555D01*
X197548005Y-131510180D01*
X197513446Y-131491708D01*
X197483153Y-131466847D01*
X197458292Y-131436554D01*
X197439820Y-131401995D01*
X197428445Y-131364499D01*
X197424000Y-131319362D01*
X197424000Y-130680638D01*
X197428445Y-130635501D01*
X197439820Y-130598005D01*
X197458292Y-130563446D01*
X197483153Y-130533153D01*
X197513446Y-130508292D01*
X197548005Y-130489820D01*
X197585501Y-130478445D01*
X197630638Y-130474000D01*
X198369362Y-130474000D01*
X198414499Y-130478445D01*
G37*
G36*
X140946000Y-131501000D02*
G01*
X140244000Y-131501000D01*
X140244000Y-129399000D01*
X140946000Y-129399000D01*
X140946000Y-131501000D01*
G37*
G36*
X142216000Y-131501000D02*
G01*
X141514000Y-131501000D01*
X141514000Y-129399000D01*
X142216000Y-129399000D01*
X142216000Y-131501000D01*
G37*
G36*
X143486000Y-131501000D02*
G01*
X142784000Y-131501000D01*
X142784000Y-129399000D01*
X143486000Y-129399000D01*
X143486000Y-131501000D01*
G37*
G36*
X144756000Y-131501000D02*
G01*
X144054000Y-131501000D01*
X144054000Y-129399000D01*
X144756000Y-129399000D01*
X144756000Y-131501000D01*
G37*
G36*
X180551000Y-131401000D02*
G01*
X179449000Y-131401000D01*
X179449000Y-128799000D01*
X180551000Y-128799000D01*
X180551000Y-131401000D01*
G37*
G36*
X182551000Y-131401000D02*
G01*
X181449000Y-131401000D01*
X181449000Y-128799000D01*
X182551000Y-128799000D01*
X182551000Y-131401000D01*
G37*
G36*
X184551000Y-131401000D02*
G01*
X183449000Y-131401000D01*
X183449000Y-128799000D01*
X184551000Y-128799000D01*
X184551000Y-131401000D01*
G37*
G36*
X186551000Y-131401000D02*
G01*
X185449000Y-131401000D01*
X185449000Y-128799000D01*
X186551000Y-128799000D01*
X186551000Y-131401000D01*
G37*
G36*
X178551000Y-131401000D02*
G01*
X177449000Y-131401000D01*
X177449000Y-128799000D01*
X178551000Y-128799000D01*
X178551000Y-131401000D01*
G37*
G36*
X188551000Y-131401000D02*
G01*
X187449000Y-131401000D01*
X187449000Y-128799000D01*
X188551000Y-128799000D01*
X188551000Y-131401000D01*
G37*
G36*
X174551000Y-131401000D02*
G01*
X173449000Y-131401000D01*
X173449000Y-128799000D01*
X174551000Y-128799000D01*
X174551000Y-131401000D01*
G37*
G36*
X176551000Y-131401000D02*
G01*
X175449000Y-131401000D01*
X175449000Y-128799000D01*
X176551000Y-128799000D01*
X176551000Y-131401000D01*
G37*
G36*
X135251000Y-131351000D02*
G01*
X133649000Y-131351000D01*
X133649000Y-129649000D01*
X135251000Y-129649000D01*
X135251000Y-131351000D01*
G37*
G36*
X147864499Y-130178445D02*
G01*
X147901995Y-130189820D01*
X147936554Y-130208292D01*
X147966847Y-130233153D01*
X147991708Y-130263446D01*
X148010180Y-130298005D01*
X148021555Y-130335501D01*
X148026000Y-130380638D01*
X148026000Y-131119362D01*
X148021555Y-131164499D01*
X148010180Y-131201995D01*
X147991708Y-131236554D01*
X147966847Y-131266847D01*
X147936554Y-131291708D01*
X147901995Y-131310180D01*
X147864499Y-131321555D01*
X147819362Y-131326000D01*
X147180638Y-131326000D01*
X147135501Y-131321555D01*
X147098005Y-131310180D01*
X147063446Y-131291708D01*
X147033153Y-131266847D01*
X147008292Y-131236554D01*
X146989820Y-131201995D01*
X146978445Y-131164499D01*
X146974000Y-131119362D01*
X146974000Y-130380638D01*
X146978445Y-130335501D01*
X146989820Y-130298005D01*
X147008292Y-130263446D01*
X147033153Y-130233153D01*
X147063446Y-130208292D01*
X147098005Y-130189820D01*
X147135501Y-130178445D01*
X147180638Y-130174000D01*
X147819362Y-130174000D01*
X147864499Y-130178445D01*
G37*
G36*
X204364499Y-129928445D02*
G01*
X204401995Y-129939820D01*
X204436554Y-129958292D01*
X204466847Y-129983153D01*
X204491708Y-130013446D01*
X204510180Y-130048005D01*
X204521555Y-130085501D01*
X204526000Y-130130638D01*
X204526000Y-130869362D01*
X204521555Y-130914499D01*
X204510180Y-130951995D01*
X204491708Y-130986554D01*
X204466847Y-131016847D01*
X204436554Y-131041708D01*
X204401995Y-131060180D01*
X204364499Y-131071555D01*
X204319362Y-131076000D01*
X203680638Y-131076000D01*
X203635501Y-131071555D01*
X203598005Y-131060180D01*
X203563446Y-131041708D01*
X203533153Y-131016847D01*
X203508292Y-130986554D01*
X203489820Y-130951995D01*
X203478445Y-130914499D01*
X203474000Y-130869362D01*
X203474000Y-130130638D01*
X203478445Y-130085501D01*
X203489820Y-130048005D01*
X203508292Y-130013446D01*
X203533153Y-129983153D01*
X203563446Y-129958292D01*
X203598005Y-129939820D01*
X203635501Y-129928445D01*
X203680638Y-129924000D01*
X204319362Y-129924000D01*
X204364499Y-129928445D01*
G37*
G36*
X202720000Y-130870000D02*
G01*
X201280000Y-130870000D01*
X201280000Y-130130000D01*
X202720000Y-130130000D01*
X202720000Y-130870000D01*
G37*
G36*
X129270000Y-130870000D02*
G01*
X127830000Y-130870000D01*
X127830000Y-130130000D01*
X129270000Y-130130000D01*
X129270000Y-130870000D01*
G37*
G36*
X123775562Y-128740681D02*
G01*
X123810481Y-128751274D01*
X123842663Y-128768476D01*
X123870873Y-128791627D01*
X123894024Y-128819837D01*
X123911226Y-128852019D01*
X123921819Y-128886938D01*
X123926000Y-128929395D01*
X123926000Y-130070605D01*
X123921819Y-130113062D01*
X123911226Y-130147981D01*
X123894024Y-130180163D01*
X123870873Y-130208373D01*
X123842663Y-130231524D01*
X123810481Y-130248726D01*
X123775562Y-130259319D01*
X123733105Y-130263500D01*
X122266895Y-130263500D01*
X122224438Y-130259319D01*
X122189519Y-130248726D01*
X122157337Y-130231524D01*
X122129127Y-130208373D01*
X122105976Y-130180163D01*
X122088774Y-130147981D01*
X122078181Y-130113062D01*
X122074000Y-130070605D01*
X122074000Y-128929395D01*
X122078181Y-128886938D01*
X122088774Y-128852019D01*
X122105976Y-128819837D01*
X122129127Y-128791627D01*
X122157337Y-128768476D01*
X122189519Y-128751274D01*
X122224438Y-128740681D01*
X122266895Y-128736500D01*
X123733105Y-128736500D01*
X123775562Y-128740681D01*
G37*
G36*
X131851000Y-130151000D02*
G01*
X130549000Y-130151000D01*
X130549000Y-128849000D01*
X131851000Y-128849000D01*
X131851000Y-130151000D01*
G37*
G36*
X127170000Y-129920000D02*
G01*
X125730000Y-129920000D01*
X125730000Y-129180000D01*
X127170000Y-129180000D01*
X127170000Y-129920000D01*
G37*
G36*
X200620000Y-129920000D02*
G01*
X199180000Y-129920000D01*
X199180000Y-129180000D01*
X200620000Y-129180000D01*
X200620000Y-129920000D01*
G37*
G36*
X146364499Y-128428445D02*
G01*
X146401995Y-128439820D01*
X146436554Y-128458292D01*
X146466847Y-128483153D01*
X146491708Y-128513446D01*
X146510180Y-128548005D01*
X146521555Y-128585501D01*
X146526000Y-128630638D01*
X146526000Y-129369362D01*
X146521555Y-129414499D01*
X146510180Y-129451995D01*
X146491708Y-129486554D01*
X146466847Y-129516847D01*
X146436554Y-129541708D01*
X146401995Y-129560180D01*
X146364499Y-129571555D01*
X146319362Y-129576000D01*
X145680638Y-129576000D01*
X145635501Y-129571555D01*
X145598005Y-129560180D01*
X145563446Y-129541708D01*
X145533153Y-129516847D01*
X145508292Y-129486554D01*
X145489820Y-129451995D01*
X145478445Y-129414499D01*
X145474000Y-129369362D01*
X145474000Y-128630638D01*
X145478445Y-128585501D01*
X145489820Y-128548005D01*
X145508292Y-128513446D01*
X145533153Y-128483153D01*
X145563446Y-128458292D01*
X145598005Y-128439820D01*
X145635501Y-128428445D01*
X145680638Y-128424000D01*
X146319362Y-128424000D01*
X146364499Y-128428445D01*
G37*
G36*
X147864499Y-128428445D02*
G01*
X147901995Y-128439820D01*
X147936554Y-128458292D01*
X147966847Y-128483153D01*
X147991708Y-128513446D01*
X148010180Y-128548005D01*
X148021555Y-128585501D01*
X148026000Y-128630638D01*
X148026000Y-129369362D01*
X148021555Y-129414499D01*
X148010180Y-129451995D01*
X147991708Y-129486554D01*
X147966847Y-129516847D01*
X147936554Y-129541708D01*
X147901995Y-129560180D01*
X147864499Y-129571555D01*
X147819362Y-129576000D01*
X147180638Y-129576000D01*
X147135501Y-129571555D01*
X147098005Y-129560180D01*
X147063446Y-129541708D01*
X147033153Y-129516847D01*
X147008292Y-129486554D01*
X146989820Y-129451995D01*
X146978445Y-129414499D01*
X146974000Y-129369362D01*
X146974000Y-128630638D01*
X146978445Y-128585501D01*
X146989820Y-128548005D01*
X147008292Y-128513446D01*
X147033153Y-128483153D01*
X147063446Y-128458292D01*
X147098005Y-128439820D01*
X147135501Y-128428445D01*
X147180638Y-128424000D01*
X147819362Y-128424000D01*
X147864499Y-128428445D01*
G37*
G36*
X204364499Y-128178445D02*
G01*
X204401995Y-128189820D01*
X204436554Y-128208292D01*
X204466847Y-128233153D01*
X204491708Y-128263446D01*
X204510180Y-128298005D01*
X204521555Y-128335501D01*
X204526000Y-128380638D01*
X204526000Y-129119362D01*
X204521555Y-129164499D01*
X204510180Y-129201995D01*
X204491708Y-129236554D01*
X204466847Y-129266847D01*
X204436554Y-129291708D01*
X204401995Y-129310180D01*
X204364499Y-129321555D01*
X204319362Y-129326000D01*
X203680638Y-129326000D01*
X203635501Y-129321555D01*
X203598005Y-129310180D01*
X203563446Y-129291708D01*
X203533153Y-129266847D01*
X203508292Y-129236554D01*
X203489820Y-129201995D01*
X203478445Y-129164499D01*
X203474000Y-129119362D01*
X203474000Y-128380638D01*
X203478445Y-128335501D01*
X203489820Y-128298005D01*
X203508292Y-128263446D01*
X203533153Y-128233153D01*
X203563446Y-128208292D01*
X203598005Y-128189820D01*
X203635501Y-128178445D01*
X203680638Y-128174000D01*
X204319362Y-128174000D01*
X204364499Y-128178445D01*
G37*
G36*
X202720000Y-128970000D02*
G01*
X201280000Y-128970000D01*
X201280000Y-128230000D01*
X202720000Y-128230000D01*
X202720000Y-128970000D01*
G37*
G36*
X114788062Y-127253181D02*
G01*
X114822981Y-127263774D01*
X114855163Y-127280976D01*
X114883373Y-127304127D01*
X114906524Y-127332337D01*
X114923726Y-127364519D01*
X114934319Y-127399438D01*
X114938500Y-127441895D01*
X114938500Y-128583105D01*
X114934319Y-128625562D01*
X114923726Y-128660481D01*
X114906524Y-128692663D01*
X114883373Y-128720873D01*
X114855163Y-128744024D01*
X114822981Y-128761226D01*
X114788062Y-128771819D01*
X114745605Y-128776000D01*
X113279395Y-128776000D01*
X113236938Y-128771819D01*
X113202019Y-128761226D01*
X113169837Y-128744024D01*
X113141627Y-128720873D01*
X113118476Y-128692663D01*
X113101274Y-128660481D01*
X113090681Y-128625562D01*
X113086500Y-128583105D01*
X113086500Y-127441895D01*
X113090681Y-127399438D01*
X113101274Y-127364519D01*
X113118476Y-127332337D01*
X113141627Y-127304127D01*
X113169837Y-127280976D01*
X113202019Y-127263774D01*
X113236938Y-127253181D01*
X113279395Y-127249000D01*
X114745605Y-127249000D01*
X114788062Y-127253181D01*
G37*
G36*
X117701000Y-128601000D02*
G01*
X116499000Y-128601000D01*
X116499000Y-127399000D01*
X117701000Y-127399000D01*
X117701000Y-128601000D01*
G37*
G36*
X120501000Y-128601000D02*
G01*
X119299000Y-128601000D01*
X119299000Y-127399000D01*
X120501000Y-127399000D01*
X120501000Y-128601000D01*
G37*
G36*
X110414499Y-127478445D02*
G01*
X110451995Y-127489820D01*
X110486554Y-127508292D01*
X110516847Y-127533153D01*
X110541708Y-127563446D01*
X110560180Y-127598005D01*
X110571555Y-127635501D01*
X110576000Y-127680638D01*
X110576000Y-128319362D01*
X110571555Y-128364499D01*
X110560180Y-128401995D01*
X110541708Y-128436554D01*
X110516847Y-128466847D01*
X110486554Y-128491708D01*
X110451995Y-128510180D01*
X110414499Y-128521555D01*
X110369362Y-128526000D01*
X109630638Y-128526000D01*
X109585501Y-128521555D01*
X109548005Y-128510180D01*
X109513446Y-128491708D01*
X109483153Y-128466847D01*
X109458292Y-128436554D01*
X109439820Y-128401995D01*
X109428445Y-128364499D01*
X109424000Y-128319362D01*
X109424000Y-127680638D01*
X109428445Y-127635501D01*
X109439820Y-127598005D01*
X109458292Y-127563446D01*
X109483153Y-127533153D01*
X109513446Y-127508292D01*
X109548005Y-127489820D01*
X109585501Y-127478445D01*
X109630638Y-127474000D01*
X110369362Y-127474000D01*
X110414499Y-127478445D01*
G37*
G36*
X108664499Y-127478445D02*
G01*
X108701995Y-127489820D01*
X108736554Y-127508292D01*
X108766847Y-127533153D01*
X108791708Y-127563446D01*
X108810180Y-127598005D01*
X108821555Y-127635501D01*
X108826000Y-127680638D01*
X108826000Y-128319362D01*
X108821555Y-128364499D01*
X108810180Y-128401995D01*
X108791708Y-128436554D01*
X108766847Y-128466847D01*
X108736554Y-128491708D01*
X108701995Y-128510180D01*
X108664499Y-128521555D01*
X108619362Y-128526000D01*
X107880638Y-128526000D01*
X107835501Y-128521555D01*
X107798005Y-128510180D01*
X107763446Y-128491708D01*
X107733153Y-128466847D01*
X107708292Y-128436554D01*
X107689820Y-128401995D01*
X107678445Y-128364499D01*
X107674000Y-128319362D01*
X107674000Y-127680638D01*
X107678445Y-127635501D01*
X107689820Y-127598005D01*
X107708292Y-127563446D01*
X107733153Y-127533153D01*
X107763446Y-127508292D01*
X107798005Y-127489820D01*
X107835501Y-127478445D01*
X107880638Y-127474000D01*
X108619362Y-127474000D01*
X108664499Y-127478445D01*
G37*
G36*
X154010721Y-127310174D02*
G01*
X154110995Y-127351709D01*
X154110996Y-127351710D01*
X154201242Y-127412010D01*
X154277990Y-127488758D01*
X154307654Y-127533153D01*
X154338291Y-127579005D01*
X154379826Y-127679279D01*
X154401000Y-127785730D01*
X154401000Y-127894270D01*
X154379826Y-128000721D01*
X154338291Y-128100995D01*
X154338290Y-128100996D01*
X154277990Y-128191242D01*
X154201242Y-128267990D01*
X154166977Y-128290885D01*
X154110995Y-128328291D01*
X154010721Y-128369826D01*
X153904270Y-128391000D01*
X153795730Y-128391000D01*
X153689279Y-128369826D01*
X153589005Y-128328291D01*
X153533023Y-128290885D01*
X153498758Y-128267990D01*
X153422010Y-128191242D01*
X153361710Y-128100996D01*
X153361709Y-128100995D01*
X153320174Y-128000721D01*
X153299000Y-127894270D01*
X153299000Y-127785730D01*
X153320174Y-127679279D01*
X153361709Y-127579005D01*
X153392346Y-127533153D01*
X153422010Y-127488758D01*
X153498758Y-127412010D01*
X153589004Y-127351710D01*
X153589005Y-127351709D01*
X153689279Y-127310174D01*
X153795730Y-127289000D01*
X153904270Y-127289000D01*
X154010721Y-127310174D01*
G37*
G36*
X158410721Y-127310174D02*
G01*
X158510995Y-127351709D01*
X158510996Y-127351710D01*
X158601242Y-127412010D01*
X158677990Y-127488758D01*
X158707654Y-127533153D01*
X158738291Y-127579005D01*
X158779826Y-127679279D01*
X158801000Y-127785730D01*
X158801000Y-127894270D01*
X158779826Y-128000721D01*
X158738291Y-128100995D01*
X158738290Y-128100996D01*
X158677990Y-128191242D01*
X158601242Y-128267990D01*
X158566977Y-128290885D01*
X158510995Y-128328291D01*
X158410721Y-128369826D01*
X158304270Y-128391000D01*
X158195730Y-128391000D01*
X158089279Y-128369826D01*
X157989005Y-128328291D01*
X157933023Y-128290885D01*
X157898758Y-128267990D01*
X157822010Y-128191242D01*
X157761710Y-128100996D01*
X157761709Y-128100995D01*
X157720174Y-128000721D01*
X157699000Y-127894270D01*
X157699000Y-127785730D01*
X157720174Y-127679279D01*
X157761709Y-127579005D01*
X157792346Y-127533153D01*
X157822010Y-127488758D01*
X157898758Y-127412010D01*
X157989004Y-127351710D01*
X157989005Y-127351709D01*
X158089279Y-127310174D01*
X158195730Y-127289000D01*
X158304270Y-127289000D01*
X158410721Y-127310174D01*
G37*
G36*
X193484928Y-127556764D02*
G01*
X193506009Y-127563160D01*
X193525445Y-127573548D01*
X193542476Y-127587524D01*
X193556452Y-127604555D01*
X193566840Y-127623991D01*
X193573236Y-127645072D01*
X193576000Y-127673140D01*
X193576000Y-128136860D01*
X193573236Y-128164928D01*
X193566840Y-128186009D01*
X193556452Y-128205445D01*
X193542476Y-128222476D01*
X193525445Y-128236452D01*
X193506009Y-128246840D01*
X193484928Y-128253236D01*
X193456860Y-128256000D01*
X191643140Y-128256000D01*
X191615072Y-128253236D01*
X191593991Y-128246840D01*
X191574555Y-128236452D01*
X191557524Y-128222476D01*
X191543548Y-128205445D01*
X191533160Y-128186009D01*
X191526764Y-128164928D01*
X191524000Y-128136860D01*
X191524000Y-127673140D01*
X191526764Y-127645072D01*
X191533160Y-127623991D01*
X191543548Y-127604555D01*
X191557524Y-127587524D01*
X191574555Y-127573548D01*
X191593991Y-127563160D01*
X191615072Y-127556764D01*
X191643140Y-127554000D01*
X193456860Y-127554000D01*
X193484928Y-127556764D01*
G37*
G36*
X198434928Y-127556764D02*
G01*
X198456009Y-127563160D01*
X198475445Y-127573548D01*
X198492476Y-127587524D01*
X198506452Y-127604555D01*
X198516840Y-127623991D01*
X198523236Y-127645072D01*
X198526000Y-127673140D01*
X198526000Y-128136860D01*
X198523236Y-128164928D01*
X198516840Y-128186009D01*
X198506452Y-128205445D01*
X198492476Y-128222476D01*
X198475445Y-128236452D01*
X198456009Y-128246840D01*
X198434928Y-128253236D01*
X198406860Y-128256000D01*
X196593140Y-128256000D01*
X196565072Y-128253236D01*
X196543991Y-128246840D01*
X196524555Y-128236452D01*
X196507524Y-128222476D01*
X196493548Y-128205445D01*
X196483160Y-128186009D01*
X196476764Y-128164928D01*
X196474000Y-128136860D01*
X196474000Y-127673140D01*
X196476764Y-127645072D01*
X196483160Y-127623991D01*
X196493548Y-127604555D01*
X196507524Y-127587524D01*
X196524555Y-127573548D01*
X196543991Y-127563160D01*
X196565072Y-127556764D01*
X196593140Y-127554000D01*
X198406860Y-127554000D01*
X198434928Y-127556764D01*
G37*
G36*
X190451000Y-128051000D02*
G01*
X188549000Y-128051000D01*
X188549000Y-126949000D01*
X190451000Y-126949000D01*
X190451000Y-128051000D01*
G37*
G36*
X146364499Y-126678445D02*
G01*
X146401995Y-126689820D01*
X146436554Y-126708292D01*
X146466847Y-126733153D01*
X146491708Y-126763446D01*
X146510180Y-126798005D01*
X146521555Y-126835501D01*
X146526000Y-126880638D01*
X146526000Y-127619362D01*
X146521555Y-127664499D01*
X146510180Y-127701995D01*
X146491708Y-127736554D01*
X146466847Y-127766847D01*
X146436554Y-127791708D01*
X146401995Y-127810180D01*
X146364499Y-127821555D01*
X146319362Y-127826000D01*
X145680638Y-127826000D01*
X145635501Y-127821555D01*
X145598005Y-127810180D01*
X145563446Y-127791708D01*
X145533153Y-127766847D01*
X145508292Y-127736554D01*
X145489820Y-127701995D01*
X145478445Y-127664499D01*
X145474000Y-127619362D01*
X145474000Y-126880638D01*
X145478445Y-126835501D01*
X145489820Y-126798005D01*
X145508292Y-126763446D01*
X145533153Y-126733153D01*
X145563446Y-126708292D01*
X145598005Y-126689820D01*
X145635501Y-126678445D01*
X145680638Y-126674000D01*
X146319362Y-126674000D01*
X146364499Y-126678445D01*
G37*
G36*
X147864499Y-126678445D02*
G01*
X147901995Y-126689820D01*
X147936554Y-126708292D01*
X147966847Y-126733153D01*
X147991708Y-126763446D01*
X148010180Y-126798005D01*
X148021555Y-126835501D01*
X148026000Y-126880638D01*
X148026000Y-127619362D01*
X148021555Y-127664499D01*
X148010180Y-127701995D01*
X147991708Y-127736554D01*
X147966847Y-127766847D01*
X147936554Y-127791708D01*
X147901995Y-127810180D01*
X147864499Y-127821555D01*
X147819362Y-127826000D01*
X147180638Y-127826000D01*
X147135501Y-127821555D01*
X147098005Y-127810180D01*
X147063446Y-127791708D01*
X147033153Y-127766847D01*
X147008292Y-127736554D01*
X146989820Y-127701995D01*
X146978445Y-127664499D01*
X146974000Y-127619362D01*
X146974000Y-126880638D01*
X146978445Y-126835501D01*
X146989820Y-126798005D01*
X147008292Y-126763446D01*
X147033153Y-126733153D01*
X147063446Y-126708292D01*
X147098005Y-126689820D01*
X147135501Y-126678445D01*
X147180638Y-126674000D01*
X147819362Y-126674000D01*
X147864499Y-126678445D01*
G37*
G36*
X123775562Y-125765681D02*
G01*
X123810481Y-125776274D01*
X123842663Y-125793476D01*
X123870873Y-125816627D01*
X123894024Y-125844837D01*
X123911226Y-125877019D01*
X123921819Y-125911938D01*
X123926000Y-125954395D01*
X123926000Y-127095605D01*
X123921819Y-127138062D01*
X123911226Y-127172981D01*
X123894024Y-127205163D01*
X123870873Y-127233373D01*
X123842663Y-127256524D01*
X123810481Y-127273726D01*
X123775562Y-127284319D01*
X123733105Y-127288500D01*
X122266895Y-127288500D01*
X122224438Y-127284319D01*
X122189519Y-127273726D01*
X122157337Y-127256524D01*
X122129127Y-127233373D01*
X122105976Y-127205163D01*
X122088774Y-127172981D01*
X122078181Y-127138062D01*
X122074000Y-127095605D01*
X122074000Y-125954395D01*
X122078181Y-125911938D01*
X122088774Y-125877019D01*
X122105976Y-125844837D01*
X122129127Y-125816627D01*
X122157337Y-125793476D01*
X122189519Y-125776274D01*
X122224438Y-125765681D01*
X122266895Y-125761500D01*
X123733105Y-125761500D01*
X123775562Y-125765681D01*
G37*
G36*
X128164499Y-125978445D02*
G01*
X128201995Y-125989820D01*
X128236554Y-126008292D01*
X128266847Y-126033153D01*
X128291708Y-126063446D01*
X128310180Y-126098005D01*
X128321555Y-126135501D01*
X128326000Y-126180638D01*
X128326000Y-126819362D01*
X128321555Y-126864499D01*
X128310180Y-126901995D01*
X128291708Y-126936554D01*
X128266847Y-126966847D01*
X128236554Y-126991708D01*
X128201995Y-127010180D01*
X128164499Y-127021555D01*
X128119362Y-127026000D01*
X127380638Y-127026000D01*
X127335501Y-127021555D01*
X127298005Y-127010180D01*
X127263446Y-126991708D01*
X127233153Y-126966847D01*
X127208292Y-126936554D01*
X127189820Y-126901995D01*
X127178445Y-126864499D01*
X127174000Y-126819362D01*
X127174000Y-126180638D01*
X127178445Y-126135501D01*
X127189820Y-126098005D01*
X127208292Y-126063446D01*
X127233153Y-126033153D01*
X127263446Y-126008292D01*
X127298005Y-125989820D01*
X127335501Y-125978445D01*
X127380638Y-125974000D01*
X128119362Y-125974000D01*
X128164499Y-125978445D01*
G37*
G36*
X202914499Y-125978445D02*
G01*
X202951995Y-125989820D01*
X202986554Y-126008292D01*
X203016847Y-126033153D01*
X203041708Y-126063446D01*
X203060180Y-126098005D01*
X203071555Y-126135501D01*
X203076000Y-126180638D01*
X203076000Y-126819362D01*
X203071555Y-126864499D01*
X203060180Y-126901995D01*
X203041708Y-126936554D01*
X203016847Y-126966847D01*
X202986554Y-126991708D01*
X202951995Y-127010180D01*
X202914499Y-127021555D01*
X202869362Y-127026000D01*
X202130638Y-127026000D01*
X202085501Y-127021555D01*
X202048005Y-127010180D01*
X202013446Y-126991708D01*
X201983153Y-126966847D01*
X201958292Y-126936554D01*
X201939820Y-126901995D01*
X201928445Y-126864499D01*
X201924000Y-126819362D01*
X201924000Y-126180638D01*
X201928445Y-126135501D01*
X201939820Y-126098005D01*
X201958292Y-126063446D01*
X201983153Y-126033153D01*
X202013446Y-126008292D01*
X202048005Y-125989820D01*
X202085501Y-125978445D01*
X202130638Y-125974000D01*
X202869362Y-125974000D01*
X202914499Y-125978445D01*
G37*
G36*
X201164499Y-125978445D02*
G01*
X201201995Y-125989820D01*
X201236554Y-126008292D01*
X201266847Y-126033153D01*
X201291708Y-126063446D01*
X201310180Y-126098005D01*
X201321555Y-126135501D01*
X201326000Y-126180638D01*
X201326000Y-126819362D01*
X201321555Y-126864499D01*
X201310180Y-126901995D01*
X201291708Y-126936554D01*
X201266847Y-126966847D01*
X201236554Y-126991708D01*
X201201995Y-127010180D01*
X201164499Y-127021555D01*
X201119362Y-127026000D01*
X200380638Y-127026000D01*
X200335501Y-127021555D01*
X200298005Y-127010180D01*
X200263446Y-126991708D01*
X200233153Y-126966847D01*
X200208292Y-126936554D01*
X200189820Y-126901995D01*
X200178445Y-126864499D01*
X200174000Y-126819362D01*
X200174000Y-126180638D01*
X200178445Y-126135501D01*
X200189820Y-126098005D01*
X200208292Y-126063446D01*
X200233153Y-126033153D01*
X200263446Y-126008292D01*
X200298005Y-125989820D01*
X200335501Y-125978445D01*
X200380638Y-125974000D01*
X201119362Y-125974000D01*
X201164499Y-125978445D01*
G37*
G36*
X129914499Y-125978445D02*
G01*
X129951995Y-125989820D01*
X129986554Y-126008292D01*
X130016847Y-126033153D01*
X130041708Y-126063446D01*
X130060180Y-126098005D01*
X130071555Y-126135501D01*
X130076000Y-126180638D01*
X130076000Y-126819362D01*
X130071555Y-126864499D01*
X130060180Y-126901995D01*
X130041708Y-126936554D01*
X130016847Y-126966847D01*
X129986554Y-126991708D01*
X129951995Y-127010180D01*
X129914499Y-127021555D01*
X129869362Y-127026000D01*
X129130638Y-127026000D01*
X129085501Y-127021555D01*
X129048005Y-127010180D01*
X129013446Y-126991708D01*
X128983153Y-126966847D01*
X128958292Y-126936554D01*
X128939820Y-126901995D01*
X128928445Y-126864499D01*
X128924000Y-126819362D01*
X128924000Y-126180638D01*
X128928445Y-126135501D01*
X128939820Y-126098005D01*
X128958292Y-126063446D01*
X128983153Y-126033153D01*
X129013446Y-126008292D01*
X129048005Y-125989820D01*
X129085501Y-125978445D01*
X129130638Y-125974000D01*
X129869362Y-125974000D01*
X129914499Y-125978445D01*
G37*
G36*
X132164499Y-125978445D02*
G01*
X132201995Y-125989820D01*
X132236554Y-126008292D01*
X132266847Y-126033153D01*
X132291708Y-126063446D01*
X132310180Y-126098005D01*
X132321555Y-126135501D01*
X132326000Y-126180638D01*
X132326000Y-126819362D01*
X132321555Y-126864499D01*
X132310180Y-126901995D01*
X132291708Y-126936554D01*
X132266847Y-126966847D01*
X132236554Y-126991708D01*
X132201995Y-127010180D01*
X132164499Y-127021555D01*
X132119362Y-127026000D01*
X131380638Y-127026000D01*
X131335501Y-127021555D01*
X131298005Y-127010180D01*
X131263446Y-126991708D01*
X131233153Y-126966847D01*
X131208292Y-126936554D01*
X131189820Y-126901995D01*
X131178445Y-126864499D01*
X131174000Y-126819362D01*
X131174000Y-126180638D01*
X131178445Y-126135501D01*
X131189820Y-126098005D01*
X131208292Y-126063446D01*
X131233153Y-126033153D01*
X131263446Y-126008292D01*
X131298005Y-125989820D01*
X131335501Y-125978445D01*
X131380638Y-125974000D01*
X132119362Y-125974000D01*
X132164499Y-125978445D01*
G37*
G36*
X133914499Y-125978445D02*
G01*
X133951995Y-125989820D01*
X133986554Y-126008292D01*
X134016847Y-126033153D01*
X134041708Y-126063446D01*
X134060180Y-126098005D01*
X134071555Y-126135501D01*
X134076000Y-126180638D01*
X134076000Y-126819362D01*
X134071555Y-126864499D01*
X134060180Y-126901995D01*
X134041708Y-126936554D01*
X134016847Y-126966847D01*
X133986554Y-126991708D01*
X133951995Y-127010180D01*
X133914499Y-127021555D01*
X133869362Y-127026000D01*
X133130638Y-127026000D01*
X133085501Y-127021555D01*
X133048005Y-127010180D01*
X133013446Y-126991708D01*
X132983153Y-126966847D01*
X132958292Y-126936554D01*
X132939820Y-126901995D01*
X132928445Y-126864499D01*
X132924000Y-126819362D01*
X132924000Y-126180638D01*
X132928445Y-126135501D01*
X132939820Y-126098005D01*
X132958292Y-126063446D01*
X132983153Y-126033153D01*
X133013446Y-126008292D01*
X133048005Y-125989820D01*
X133085501Y-125978445D01*
X133130638Y-125974000D01*
X133869362Y-125974000D01*
X133914499Y-125978445D01*
G37*
G36*
X198434928Y-126286764D02*
G01*
X198456009Y-126293160D01*
X198475445Y-126303548D01*
X198492476Y-126317524D01*
X198506452Y-126334555D01*
X198516840Y-126353991D01*
X198523236Y-126375072D01*
X198526000Y-126403140D01*
X198526000Y-126866860D01*
X198523236Y-126894928D01*
X198516840Y-126916009D01*
X198506452Y-126935445D01*
X198492476Y-126952476D01*
X198475445Y-126966452D01*
X198456009Y-126976840D01*
X198434928Y-126983236D01*
X198406860Y-126986000D01*
X196593140Y-126986000D01*
X196565072Y-126983236D01*
X196543991Y-126976840D01*
X196524555Y-126966452D01*
X196507524Y-126952476D01*
X196493548Y-126935445D01*
X196483160Y-126916009D01*
X196476764Y-126894928D01*
X196474000Y-126866860D01*
X196474000Y-126403140D01*
X196476764Y-126375072D01*
X196483160Y-126353991D01*
X196493548Y-126334555D01*
X196507524Y-126317524D01*
X196524555Y-126303548D01*
X196543991Y-126293160D01*
X196565072Y-126286764D01*
X196593140Y-126284000D01*
X198406860Y-126284000D01*
X198434928Y-126286764D01*
G37*
G36*
X193484928Y-126286764D02*
G01*
X193506009Y-126293160D01*
X193525445Y-126303548D01*
X193542476Y-126317524D01*
X193556452Y-126334555D01*
X193566840Y-126353991D01*
X193573236Y-126375072D01*
X193576000Y-126403140D01*
X193576000Y-126866860D01*
X193573236Y-126894928D01*
X193566840Y-126916009D01*
X193556452Y-126935445D01*
X193542476Y-126952476D01*
X193525445Y-126966452D01*
X193506009Y-126976840D01*
X193484928Y-126983236D01*
X193456860Y-126986000D01*
X191643140Y-126986000D01*
X191615072Y-126983236D01*
X191593991Y-126976840D01*
X191574555Y-126966452D01*
X191557524Y-126952476D01*
X191543548Y-126935445D01*
X191533160Y-126916009D01*
X191526764Y-126894928D01*
X191524000Y-126866860D01*
X191524000Y-126403140D01*
X191526764Y-126375072D01*
X191533160Y-126353991D01*
X191543548Y-126334555D01*
X191557524Y-126317524D01*
X191574555Y-126303548D01*
X191593991Y-126293160D01*
X191615072Y-126286764D01*
X191643140Y-126284000D01*
X193456860Y-126284000D01*
X193484928Y-126286764D01*
G37*
G36*
X136620000Y-126820000D02*
G01*
X135180000Y-126820000D01*
X135180000Y-126080000D01*
X136620000Y-126080000D01*
X136620000Y-126820000D01*
G37*
G36*
X143486000Y-126601000D02*
G01*
X142784000Y-126601000D01*
X142784000Y-124499000D01*
X143486000Y-124499000D01*
X143486000Y-126601000D01*
G37*
G36*
X144756000Y-126601000D02*
G01*
X144054000Y-126601000D01*
X144054000Y-124499000D01*
X144756000Y-124499000D01*
X144756000Y-126601000D01*
G37*
G36*
X140946000Y-126601000D02*
G01*
X140244000Y-126601000D01*
X140244000Y-124499000D01*
X140946000Y-124499000D01*
X140946000Y-126601000D01*
G37*
G36*
X142216000Y-126601000D02*
G01*
X141514000Y-126601000D01*
X141514000Y-124499000D01*
X142216000Y-124499000D01*
X142216000Y-126601000D01*
G37*
G36*
X108664499Y-125478445D02*
G01*
X108701995Y-125489820D01*
X108736554Y-125508292D01*
X108766847Y-125533153D01*
X108791708Y-125563446D01*
X108810180Y-125598005D01*
X108821555Y-125635501D01*
X108826000Y-125680638D01*
X108826000Y-126319362D01*
X108821555Y-126364499D01*
X108810180Y-126401995D01*
X108791708Y-126436554D01*
X108766847Y-126466847D01*
X108736554Y-126491708D01*
X108701995Y-126510180D01*
X108664499Y-126521555D01*
X108619362Y-126526000D01*
X107880638Y-126526000D01*
X107835501Y-126521555D01*
X107798005Y-126510180D01*
X107763446Y-126491708D01*
X107733153Y-126466847D01*
X107708292Y-126436554D01*
X107689820Y-126401995D01*
X107678445Y-126364499D01*
X107674000Y-126319362D01*
X107674000Y-125680638D01*
X107678445Y-125635501D01*
X107689820Y-125598005D01*
X107708292Y-125563446D01*
X107733153Y-125533153D01*
X107763446Y-125508292D01*
X107798005Y-125489820D01*
X107835501Y-125478445D01*
X107880638Y-125474000D01*
X108619362Y-125474000D01*
X108664499Y-125478445D01*
G37*
G36*
X110414499Y-125478445D02*
G01*
X110451995Y-125489820D01*
X110486554Y-125508292D01*
X110516847Y-125533153D01*
X110541708Y-125563446D01*
X110560180Y-125598005D01*
X110571555Y-125635501D01*
X110576000Y-125680638D01*
X110576000Y-126319362D01*
X110571555Y-126364499D01*
X110560180Y-126401995D01*
X110541708Y-126436554D01*
X110516847Y-126466847D01*
X110486554Y-126491708D01*
X110451995Y-126510180D01*
X110414499Y-126521555D01*
X110369362Y-126526000D01*
X109630638Y-126526000D01*
X109585501Y-126521555D01*
X109548005Y-126510180D01*
X109513446Y-126491708D01*
X109483153Y-126466847D01*
X109458292Y-126436554D01*
X109439820Y-126401995D01*
X109428445Y-126364499D01*
X109424000Y-126319362D01*
X109424000Y-125680638D01*
X109428445Y-125635501D01*
X109439820Y-125598005D01*
X109458292Y-125563446D01*
X109483153Y-125533153D01*
X109513446Y-125508292D01*
X109548005Y-125489820D01*
X109585501Y-125478445D01*
X109630638Y-125474000D01*
X110369362Y-125474000D01*
X110414499Y-125478445D01*
G37*
G36*
X113879487Y-123748996D02*
G01*
X114055726Y-123821997D01*
X114116255Y-123847069D01*
X114329339Y-123989447D01*
X114510553Y-124170661D01*
X114642413Y-124368003D01*
X114652932Y-124383747D01*
X114751004Y-124620513D01*
X114801000Y-124871861D01*
X114801000Y-125128139D01*
X114751004Y-125379487D01*
X114659250Y-125601000D01*
X114652931Y-125616255D01*
X114510553Y-125829339D01*
X114329339Y-126010553D01*
X114116255Y-126152931D01*
X114116254Y-126152932D01*
X114116253Y-126152932D01*
X113879487Y-126251004D01*
X113628139Y-126301000D01*
X113371861Y-126301000D01*
X113120513Y-126251004D01*
X112883747Y-126152932D01*
X112883746Y-126152932D01*
X112883745Y-126152931D01*
X112670661Y-126010553D01*
X112489447Y-125829339D01*
X112347069Y-125616255D01*
X112340750Y-125601000D01*
X112248996Y-125379487D01*
X112199000Y-125128139D01*
X112199000Y-124871861D01*
X112248996Y-124620513D01*
X112347068Y-124383747D01*
X112357588Y-124368003D01*
X112489447Y-124170661D01*
X112670661Y-123989447D01*
X112883745Y-123847069D01*
X112944274Y-123821997D01*
X113120513Y-123748996D01*
X113371861Y-123699000D01*
X113628139Y-123699000D01*
X113879487Y-123748996D01*
G37*
G36*
X157951000Y-126191000D02*
G01*
X154149000Y-126191000D01*
X154149000Y-124089000D01*
X157951000Y-124089000D01*
X157951000Y-126191000D01*
G37*
G36*
X161551000Y-126141000D02*
G01*
X159449000Y-126141000D01*
X159449000Y-124339000D01*
X161551000Y-124339000D01*
X161551000Y-126141000D01*
G37*
G36*
X152651000Y-126141000D02*
G01*
X150549000Y-126141000D01*
X150549000Y-124339000D01*
X152651000Y-124339000D01*
X152651000Y-126141000D01*
G37*
G36*
X147864499Y-124928445D02*
G01*
X147901995Y-124939820D01*
X147936554Y-124958292D01*
X147966847Y-124983153D01*
X147991708Y-125013446D01*
X148010180Y-125048005D01*
X148021555Y-125085501D01*
X148026000Y-125130638D01*
X148026000Y-125869362D01*
X148021555Y-125914499D01*
X148010180Y-125951995D01*
X147991708Y-125986554D01*
X147966847Y-126016847D01*
X147936554Y-126041708D01*
X147901995Y-126060180D01*
X147864499Y-126071555D01*
X147819362Y-126076000D01*
X147180638Y-126076000D01*
X147135501Y-126071555D01*
X147098005Y-126060180D01*
X147063446Y-126041708D01*
X147033153Y-126016847D01*
X147008292Y-125986554D01*
X146989820Y-125951995D01*
X146978445Y-125914499D01*
X146974000Y-125869362D01*
X146974000Y-125130638D01*
X146978445Y-125085501D01*
X146989820Y-125048005D01*
X147008292Y-125013446D01*
X147033153Y-124983153D01*
X147063446Y-124958292D01*
X147098005Y-124939820D01*
X147135501Y-124928445D01*
X147180638Y-124924000D01*
X147819362Y-124924000D01*
X147864499Y-124928445D01*
G37*
G36*
X190451000Y-126051000D02*
G01*
X188549000Y-126051000D01*
X188549000Y-124949000D01*
X190451000Y-124949000D01*
X190451000Y-126051000D01*
G37*
G36*
X138720000Y-125870000D02*
G01*
X137280000Y-125870000D01*
X137280000Y-125130000D01*
X138720000Y-125130000D01*
X138720000Y-125870000D01*
G37*
G36*
X198434928Y-125016764D02*
G01*
X198456009Y-125023160D01*
X198475445Y-125033548D01*
X198492476Y-125047524D01*
X198506452Y-125064555D01*
X198516840Y-125083991D01*
X198523236Y-125105072D01*
X198526000Y-125133140D01*
X198526000Y-125596860D01*
X198523236Y-125624928D01*
X198516840Y-125646009D01*
X198506452Y-125665445D01*
X198492476Y-125682476D01*
X198475445Y-125696452D01*
X198456009Y-125706840D01*
X198434928Y-125713236D01*
X198406860Y-125716000D01*
X196593140Y-125716000D01*
X196565072Y-125713236D01*
X196543991Y-125706840D01*
X196524555Y-125696452D01*
X196507524Y-125682476D01*
X196493548Y-125665445D01*
X196483160Y-125646009D01*
X196476764Y-125624928D01*
X196474000Y-125596860D01*
X196474000Y-125133140D01*
X196476764Y-125105072D01*
X196483160Y-125083991D01*
X196493548Y-125064555D01*
X196507524Y-125047524D01*
X196524555Y-125033548D01*
X196543991Y-125023160D01*
X196565072Y-125016764D01*
X196593140Y-125014000D01*
X198406860Y-125014000D01*
X198434928Y-125016764D01*
G37*
G36*
X193484928Y-125016764D02*
G01*
X193506009Y-125023160D01*
X193525445Y-125033548D01*
X193542476Y-125047524D01*
X193556452Y-125064555D01*
X193566840Y-125083991D01*
X193573236Y-125105072D01*
X193576000Y-125133140D01*
X193576000Y-125596860D01*
X193573236Y-125624928D01*
X193566840Y-125646009D01*
X193556452Y-125665445D01*
X193542476Y-125682476D01*
X193525445Y-125696452D01*
X193506009Y-125706840D01*
X193484928Y-125713236D01*
X193456860Y-125716000D01*
X191643140Y-125716000D01*
X191615072Y-125713236D01*
X191593991Y-125706840D01*
X191574555Y-125696452D01*
X191557524Y-125682476D01*
X191543548Y-125665445D01*
X191533160Y-125646009D01*
X191526764Y-125624928D01*
X191524000Y-125596860D01*
X191524000Y-125133140D01*
X191526764Y-125105072D01*
X191533160Y-125083991D01*
X191543548Y-125064555D01*
X191557524Y-125047524D01*
X191574555Y-125033548D01*
X191593991Y-125023160D01*
X191615072Y-125016764D01*
X191643140Y-125014000D01*
X193456860Y-125014000D01*
X193484928Y-125016764D01*
G37*
G36*
X120501000Y-125601000D02*
G01*
X119299000Y-125601000D01*
X119299000Y-124399000D01*
X120501000Y-124399000D01*
X120501000Y-125601000D01*
G37*
G36*
X117701000Y-125601000D02*
G01*
X116499000Y-125601000D01*
X116499000Y-124399000D01*
X117701000Y-124399000D01*
X117701000Y-125601000D01*
G37*
G36*
X201164499Y-123978445D02*
G01*
X201201995Y-123989820D01*
X201236554Y-124008292D01*
X201266847Y-124033153D01*
X201291708Y-124063446D01*
X201310180Y-124098005D01*
X201321555Y-124135501D01*
X201326000Y-124180638D01*
X201326000Y-124819362D01*
X201321555Y-124864499D01*
X201310180Y-124901995D01*
X201291708Y-124936554D01*
X201266847Y-124966847D01*
X201236554Y-124991708D01*
X201201995Y-125010180D01*
X201164499Y-125021555D01*
X201119362Y-125026000D01*
X200380638Y-125026000D01*
X200335501Y-125021555D01*
X200298005Y-125010180D01*
X200263446Y-124991708D01*
X200233153Y-124966847D01*
X200208292Y-124936554D01*
X200189820Y-124901995D01*
X200178445Y-124864499D01*
X200174000Y-124819362D01*
X200174000Y-124180638D01*
X200178445Y-124135501D01*
X200189820Y-124098005D01*
X200208292Y-124063446D01*
X200233153Y-124033153D01*
X200263446Y-124008292D01*
X200298005Y-123989820D01*
X200335501Y-123978445D01*
X200380638Y-123974000D01*
X201119362Y-123974000D01*
X201164499Y-123978445D01*
G37*
G36*
X202914499Y-123978445D02*
G01*
X202951995Y-123989820D01*
X202986554Y-124008292D01*
X203016847Y-124033153D01*
X203041708Y-124063446D01*
X203060180Y-124098005D01*
X203071555Y-124135501D01*
X203076000Y-124180638D01*
X203076000Y-124819362D01*
X203071555Y-124864499D01*
X203060180Y-124901995D01*
X203041708Y-124936554D01*
X203016847Y-124966847D01*
X202986554Y-124991708D01*
X202951995Y-125010180D01*
X202914499Y-125021555D01*
X202869362Y-125026000D01*
X202130638Y-125026000D01*
X202085501Y-125021555D01*
X202048005Y-125010180D01*
X202013446Y-124991708D01*
X201983153Y-124966847D01*
X201958292Y-124936554D01*
X201939820Y-124901995D01*
X201928445Y-124864499D01*
X201924000Y-124819362D01*
X201924000Y-124180638D01*
X201928445Y-124135501D01*
X201939820Y-124098005D01*
X201958292Y-124063446D01*
X201983153Y-124033153D01*
X202013446Y-124008292D01*
X202048005Y-123989820D01*
X202085501Y-123978445D01*
X202130638Y-123974000D01*
X202869362Y-123974000D01*
X202914499Y-123978445D01*
G37*
G36*
X136620000Y-124920000D02*
G01*
X135180000Y-124920000D01*
X135180000Y-124180000D01*
X136620000Y-124180000D01*
X136620000Y-124920000D01*
G37*
G36*
X131151000Y-124501000D02*
G01*
X125749000Y-124501000D01*
X125749000Y-121599000D01*
X131151000Y-121599000D01*
X131151000Y-124501000D01*
G37*
G36*
X198434928Y-123746764D02*
G01*
X198456009Y-123753160D01*
X198475445Y-123763548D01*
X198492476Y-123777524D01*
X198506452Y-123794555D01*
X198516840Y-123813991D01*
X198523236Y-123835072D01*
X198526000Y-123863140D01*
X198526000Y-124326860D01*
X198523236Y-124354928D01*
X198516840Y-124376009D01*
X198506452Y-124395445D01*
X198492476Y-124412476D01*
X198475445Y-124426452D01*
X198456009Y-124436840D01*
X198434928Y-124443236D01*
X198406860Y-124446000D01*
X196593140Y-124446000D01*
X196565072Y-124443236D01*
X196543991Y-124436840D01*
X196524555Y-124426452D01*
X196507524Y-124412476D01*
X196493548Y-124395445D01*
X196483160Y-124376009D01*
X196476764Y-124354928D01*
X196474000Y-124326860D01*
X196474000Y-123863140D01*
X196476764Y-123835072D01*
X196483160Y-123813991D01*
X196493548Y-123794555D01*
X196507524Y-123777524D01*
X196524555Y-123763548D01*
X196543991Y-123753160D01*
X196565072Y-123746764D01*
X196593140Y-123744000D01*
X198406860Y-123744000D01*
X198434928Y-123746764D01*
G37*
G36*
X193484928Y-123746764D02*
G01*
X193506009Y-123753160D01*
X193525445Y-123763548D01*
X193542476Y-123777524D01*
X193556452Y-123794555D01*
X193566840Y-123813991D01*
X193573236Y-123835072D01*
X193576000Y-123863140D01*
X193576000Y-124326860D01*
X193573236Y-124354928D01*
X193566840Y-124376009D01*
X193556452Y-124395445D01*
X193542476Y-124412476D01*
X193525445Y-124426452D01*
X193506009Y-124436840D01*
X193484928Y-124443236D01*
X193456860Y-124446000D01*
X191643140Y-124446000D01*
X191615072Y-124443236D01*
X191593991Y-124436840D01*
X191574555Y-124426452D01*
X191557524Y-124412476D01*
X191543548Y-124395445D01*
X191533160Y-124376009D01*
X191526764Y-124354928D01*
X191524000Y-124326860D01*
X191524000Y-123863140D01*
X191526764Y-123835072D01*
X191533160Y-123813991D01*
X191543548Y-123794555D01*
X191557524Y-123777524D01*
X191574555Y-123763548D01*
X191593991Y-123753160D01*
X191615072Y-123746764D01*
X191643140Y-123744000D01*
X193456860Y-123744000D01*
X193484928Y-123746764D01*
G37*
G36*
X190451000Y-124051000D02*
G01*
X188549000Y-124051000D01*
X188549000Y-122949000D01*
X190451000Y-122949000D01*
X190451000Y-124051000D01*
G37*
G36*
X146164499Y-122978445D02*
G01*
X146201995Y-122989820D01*
X146236554Y-123008292D01*
X146266847Y-123033153D01*
X146291708Y-123063446D01*
X146310180Y-123098005D01*
X146321555Y-123135501D01*
X146326000Y-123180638D01*
X146326000Y-123819362D01*
X146321555Y-123864499D01*
X146310180Y-123901995D01*
X146291708Y-123936554D01*
X146266847Y-123966847D01*
X146236554Y-123991708D01*
X146201995Y-124010180D01*
X146164499Y-124021555D01*
X146119362Y-124026000D01*
X145380638Y-124026000D01*
X145335501Y-124021555D01*
X145298005Y-124010180D01*
X145263446Y-123991708D01*
X145233153Y-123966847D01*
X145208292Y-123936554D01*
X145189820Y-123901995D01*
X145178445Y-123864499D01*
X145174000Y-123819362D01*
X145174000Y-123180638D01*
X145178445Y-123135501D01*
X145189820Y-123098005D01*
X145208292Y-123063446D01*
X145233153Y-123033153D01*
X145263446Y-123008292D01*
X145298005Y-122989820D01*
X145335501Y-122978445D01*
X145380638Y-122974000D01*
X146119362Y-122974000D01*
X146164499Y-122978445D01*
G37*
G36*
X147914499Y-122978445D02*
G01*
X147951995Y-122989820D01*
X147986554Y-123008292D01*
X148016847Y-123033153D01*
X148041708Y-123063446D01*
X148060180Y-123098005D01*
X148071555Y-123135501D01*
X148076000Y-123180638D01*
X148076000Y-123819362D01*
X148071555Y-123864499D01*
X148060180Y-123901995D01*
X148041708Y-123936554D01*
X148016847Y-123966847D01*
X147986554Y-123991708D01*
X147951995Y-124010180D01*
X147914499Y-124021555D01*
X147869362Y-124026000D01*
X147130638Y-124026000D01*
X147085501Y-124021555D01*
X147048005Y-124010180D01*
X147013446Y-123991708D01*
X146983153Y-123966847D01*
X146958292Y-123936554D01*
X146939820Y-123901995D01*
X146928445Y-123864499D01*
X146924000Y-123819362D01*
X146924000Y-123180638D01*
X146928445Y-123135501D01*
X146939820Y-123098005D01*
X146958292Y-123063446D01*
X146983153Y-123033153D01*
X147013446Y-123008292D01*
X147048005Y-122989820D01*
X147085501Y-122978445D01*
X147130638Y-122974000D01*
X147869362Y-122974000D01*
X147914499Y-122978445D01*
G37*
G36*
X138289499Y-121478445D02*
G01*
X138326995Y-121489820D01*
X138361554Y-121508292D01*
X138391847Y-121533153D01*
X138416708Y-121563446D01*
X138435180Y-121598005D01*
X138446555Y-121635501D01*
X138451000Y-121680638D01*
X138451000Y-122319362D01*
X138446555Y-122364499D01*
X138435180Y-122401995D01*
X138416708Y-122436554D01*
X138391847Y-122466847D01*
X138361554Y-122491708D01*
X138326995Y-122510180D01*
X138289499Y-122521555D01*
X138244362Y-122526000D01*
X137505638Y-122526000D01*
X137460501Y-122521555D01*
X137423005Y-122510180D01*
X137388446Y-122491708D01*
X137358153Y-122466847D01*
X137333292Y-122436554D01*
X137314820Y-122401995D01*
X137303445Y-122364499D01*
X137299000Y-122319362D01*
X137299000Y-121680638D01*
X137303445Y-121635501D01*
X137314820Y-121598005D01*
X137333292Y-121563446D01*
X137358153Y-121533153D01*
X137388446Y-121508292D01*
X137423005Y-121489820D01*
X137460501Y-121478445D01*
X137505638Y-121474000D01*
X138244362Y-121474000D01*
X138289499Y-121478445D01*
G37*
G36*
X136539499Y-121478445D02*
G01*
X136576995Y-121489820D01*
X136611554Y-121508292D01*
X136641847Y-121533153D01*
X136666708Y-121563446D01*
X136685180Y-121598005D01*
X136696555Y-121635501D01*
X136701000Y-121680638D01*
X136701000Y-122319362D01*
X136696555Y-122364499D01*
X136685180Y-122401995D01*
X136666708Y-122436554D01*
X136641847Y-122466847D01*
X136611554Y-122491708D01*
X136576995Y-122510180D01*
X136539499Y-122521555D01*
X136494362Y-122526000D01*
X135755638Y-122526000D01*
X135710501Y-122521555D01*
X135673005Y-122510180D01*
X135638446Y-122491708D01*
X135608153Y-122466847D01*
X135583292Y-122436554D01*
X135564820Y-122401995D01*
X135553445Y-122364499D01*
X135549000Y-122319362D01*
X135549000Y-121680638D01*
X135553445Y-121635501D01*
X135564820Y-121598005D01*
X135583292Y-121563446D01*
X135608153Y-121533153D01*
X135638446Y-121508292D01*
X135673005Y-121489820D01*
X135710501Y-121478445D01*
X135755638Y-121474000D01*
X136494362Y-121474000D01*
X136539499Y-121478445D01*
G37*
G36*
X190451000Y-122051000D02*
G01*
X188549000Y-122051000D01*
X188549000Y-120949000D01*
X190451000Y-120949000D01*
X190451000Y-122051000D01*
G37*
G36*
X142463674Y-118753465D02*
G01*
X142501367Y-118764899D01*
X142536103Y-118783466D01*
X142566548Y-118808452D01*
X142591534Y-118838897D01*
X142610101Y-118873633D01*
X142621535Y-118911326D01*
X142626000Y-118956661D01*
X142626000Y-120043339D01*
X142621535Y-120088674D01*
X142610101Y-120126367D01*
X142591534Y-120161103D01*
X142566548Y-120191548D01*
X142536103Y-120216534D01*
X142501367Y-120235101D01*
X142463674Y-120246535D01*
X142418339Y-120251000D01*
X141581661Y-120251000D01*
X141536326Y-120246535D01*
X141498633Y-120235101D01*
X141463897Y-120216534D01*
X141433452Y-120191548D01*
X141408466Y-120161103D01*
X141389899Y-120126367D01*
X141378465Y-120088674D01*
X141374000Y-120043339D01*
X141374000Y-118956661D01*
X141378465Y-118911326D01*
X141389899Y-118873633D01*
X141408466Y-118838897D01*
X141433452Y-118808452D01*
X141463897Y-118783466D01*
X141498633Y-118764899D01*
X141536326Y-118753465D01*
X141581661Y-118749000D01*
X142418339Y-118749000D01*
X142463674Y-118753465D01*
G37*
G36*
X144513674Y-118753465D02*
G01*
X144551367Y-118764899D01*
X144586103Y-118783466D01*
X144616548Y-118808452D01*
X144641534Y-118838897D01*
X144660101Y-118873633D01*
X144671535Y-118911326D01*
X144676000Y-118956661D01*
X144676000Y-120043339D01*
X144671535Y-120088674D01*
X144660101Y-120126367D01*
X144641534Y-120161103D01*
X144616548Y-120191548D01*
X144586103Y-120216534D01*
X144551367Y-120235101D01*
X144513674Y-120246535D01*
X144468339Y-120251000D01*
X143631661Y-120251000D01*
X143586326Y-120246535D01*
X143548633Y-120235101D01*
X143513897Y-120216534D01*
X143483452Y-120191548D01*
X143458466Y-120161103D01*
X143439899Y-120126367D01*
X143428465Y-120088674D01*
X143424000Y-120043339D01*
X143424000Y-118956661D01*
X143428465Y-118911326D01*
X143439899Y-118873633D01*
X143458466Y-118838897D01*
X143483452Y-118808452D01*
X143513897Y-118783466D01*
X143548633Y-118764899D01*
X143586326Y-118753465D01*
X143631661Y-118749000D01*
X144468339Y-118749000D01*
X144513674Y-118753465D01*
G37*
G36*
X190451000Y-120051000D02*
G01*
X188549000Y-120051000D01*
X188549000Y-118949000D01*
X190451000Y-118949000D01*
X190451000Y-120051000D01*
G37*
G36*
X156381000Y-119876000D02*
G01*
X155219000Y-119876000D01*
X155219000Y-117224000D01*
X156381000Y-117224000D01*
X156381000Y-119876000D01*
G37*
G36*
X158581000Y-119876000D02*
G01*
X157419000Y-119876000D01*
X157419000Y-119124000D01*
X158581000Y-119124000D01*
X158581000Y-119876000D01*
G37*
G36*
X161364499Y-118678445D02*
G01*
X161401995Y-118689820D01*
X161436554Y-118708292D01*
X161466847Y-118733153D01*
X161491708Y-118763446D01*
X161510180Y-118798005D01*
X161521555Y-118835501D01*
X161526000Y-118880638D01*
X161526000Y-119619362D01*
X161521555Y-119664499D01*
X161510180Y-119701995D01*
X161491708Y-119736554D01*
X161466847Y-119766847D01*
X161436554Y-119791708D01*
X161401995Y-119810180D01*
X161364499Y-119821555D01*
X161319362Y-119826000D01*
X160680638Y-119826000D01*
X160635501Y-119821555D01*
X160598005Y-119810180D01*
X160563446Y-119791708D01*
X160533153Y-119766847D01*
X160508292Y-119736554D01*
X160489820Y-119701995D01*
X160478445Y-119664499D01*
X160474000Y-119619362D01*
X160474000Y-118880638D01*
X160478445Y-118835501D01*
X160489820Y-118798005D01*
X160508292Y-118763446D01*
X160533153Y-118733153D01*
X160563446Y-118708292D01*
X160598005Y-118689820D01*
X160635501Y-118678445D01*
X160680638Y-118674000D01*
X161319362Y-118674000D01*
X161364499Y-118678445D01*
G37*
G36*
X161364499Y-116928445D02*
G01*
X161401995Y-116939820D01*
X161436554Y-116958292D01*
X161466847Y-116983153D01*
X161491708Y-117013446D01*
X161510180Y-117048005D01*
X161521555Y-117085501D01*
X161526000Y-117130638D01*
X161526000Y-117869362D01*
X161521555Y-117914499D01*
X161510180Y-117951995D01*
X161491708Y-117986554D01*
X161466847Y-118016847D01*
X161436554Y-118041708D01*
X161401995Y-118060180D01*
X161364499Y-118071555D01*
X161319362Y-118076000D01*
X160680638Y-118076000D01*
X160635501Y-118071555D01*
X160598005Y-118060180D01*
X160563446Y-118041708D01*
X160533153Y-118016847D01*
X160508292Y-117986554D01*
X160489820Y-117951995D01*
X160478445Y-117914499D01*
X160474000Y-117869362D01*
X160474000Y-117130638D01*
X160478445Y-117085501D01*
X160489820Y-117048005D01*
X160508292Y-117013446D01*
X160533153Y-116983153D01*
X160563446Y-116958292D01*
X160598005Y-116939820D01*
X160635501Y-116928445D01*
X160680638Y-116924000D01*
X161319362Y-116924000D01*
X161364499Y-116928445D01*
G37*
G36*
X190451000Y-118051000D02*
G01*
X188549000Y-118051000D01*
X188549000Y-116949000D01*
X190451000Y-116949000D01*
X190451000Y-118051000D01*
G37*
G36*
X158581000Y-117976000D02*
G01*
X157419000Y-117976000D01*
X157419000Y-117224000D01*
X158581000Y-117224000D01*
X158581000Y-117976000D01*
G37*
G36*
X119824579Y-113918112D02*
G01*
X119950544Y-113943168D01*
X120097991Y-114004243D01*
X120306512Y-114090615D01*
X120306513Y-114090616D01*
X120626877Y-114304676D01*
X120899324Y-114577123D01*
X121042355Y-114791184D01*
X121113385Y-114897488D01*
X121260832Y-115253457D01*
X121336000Y-115631349D01*
X121336000Y-116016651D01*
X121260832Y-116394543D01*
X121113385Y-116750512D01*
X121113384Y-116750513D01*
X120899324Y-117070877D01*
X120626877Y-117343324D01*
X120412816Y-117486355D01*
X120306512Y-117557385D01*
X120097991Y-117643757D01*
X119950544Y-117704832D01*
X119824579Y-117729888D01*
X119572651Y-117780000D01*
X119187349Y-117780000D01*
X118935421Y-117729888D01*
X118809456Y-117704832D01*
X118662009Y-117643757D01*
X118453488Y-117557385D01*
X118347184Y-117486355D01*
X118133123Y-117343324D01*
X117860676Y-117070877D01*
X117646616Y-116750513D01*
X117646615Y-116750512D01*
X117499168Y-116394543D01*
X117424000Y-116016651D01*
X117424000Y-115631349D01*
X117499168Y-115253457D01*
X117646615Y-114897488D01*
X117717645Y-114791184D01*
X117860676Y-114577123D01*
X118133123Y-114304676D01*
X118453487Y-114090616D01*
X118453488Y-114090615D01*
X118662009Y-114004243D01*
X118809456Y-113943168D01*
X118935421Y-113918112D01*
X119187349Y-113868000D01*
X119572651Y-113868000D01*
X119824579Y-113918112D01*
G37*
G36*
X194584579Y-113918112D02*
G01*
X194710544Y-113943168D01*
X194857991Y-114004243D01*
X195066512Y-114090615D01*
X195066513Y-114090616D01*
X195386877Y-114304676D01*
X195659324Y-114577123D01*
X195802355Y-114791184D01*
X195873385Y-114897488D01*
X196020832Y-115253457D01*
X196096000Y-115631349D01*
X196096000Y-116016651D01*
X196020832Y-116394543D01*
X195873385Y-116750512D01*
X195873384Y-116750513D01*
X195659324Y-117070877D01*
X195386877Y-117343324D01*
X195172816Y-117486355D01*
X195066512Y-117557385D01*
X194857991Y-117643757D01*
X194710544Y-117704832D01*
X194584579Y-117729888D01*
X194332651Y-117780000D01*
X193947349Y-117780000D01*
X193695421Y-117729888D01*
X193569456Y-117704832D01*
X193422009Y-117643757D01*
X193213488Y-117557385D01*
X193107184Y-117486355D01*
X192893123Y-117343324D01*
X192620676Y-117070877D01*
X192406616Y-116750513D01*
X192406615Y-116750512D01*
X192259168Y-116394543D01*
X192184000Y-116016651D01*
X192184000Y-115631349D01*
X192259168Y-115253457D01*
X192406615Y-114897488D01*
X192477645Y-114791184D01*
X192620676Y-114577123D01*
X192893123Y-114304676D01*
X193213487Y-114090616D01*
X193213488Y-114090615D01*
X193422009Y-114004243D01*
X193569456Y-113943168D01*
X193695421Y-113918112D01*
X193947349Y-113868000D01*
X194332651Y-113868000D01*
X194584579Y-113918112D01*
G37*
G36*
X202204579Y-113918112D02*
G01*
X202330544Y-113943168D01*
X202477991Y-114004243D01*
X202686512Y-114090615D01*
X202686513Y-114090616D01*
X203006877Y-114304676D01*
X203279324Y-114577123D01*
X203422355Y-114791184D01*
X203493385Y-114897488D01*
X203640832Y-115253457D01*
X203716000Y-115631349D01*
X203716000Y-116016651D01*
X203640832Y-116394543D01*
X203493385Y-116750512D01*
X203493384Y-116750513D01*
X203279324Y-117070877D01*
X203006877Y-117343324D01*
X202792816Y-117486355D01*
X202686512Y-117557385D01*
X202477991Y-117643757D01*
X202330544Y-117704832D01*
X202204579Y-117729888D01*
X201952651Y-117780000D01*
X201567349Y-117780000D01*
X201315421Y-117729888D01*
X201189456Y-117704832D01*
X201042009Y-117643757D01*
X200833488Y-117557385D01*
X200727184Y-117486355D01*
X200513123Y-117343324D01*
X200240676Y-117070877D01*
X200026616Y-116750513D01*
X200026615Y-116750512D01*
X199879168Y-116394543D01*
X199804000Y-116016651D01*
X199804000Y-115631349D01*
X199879168Y-115253457D01*
X200026615Y-114897488D01*
X200097645Y-114791184D01*
X200240676Y-114577123D01*
X200513123Y-114304676D01*
X200833487Y-114090616D01*
X200833488Y-114090615D01*
X201042009Y-114004243D01*
X201189456Y-113943168D01*
X201315421Y-113918112D01*
X201567349Y-113868000D01*
X201952651Y-113868000D01*
X202204579Y-113918112D01*
G37*
G36*
X112204579Y-113918112D02*
G01*
X112330544Y-113943168D01*
X112477991Y-114004243D01*
X112686512Y-114090615D01*
X112686513Y-114090616D01*
X113006877Y-114304676D01*
X113279324Y-114577123D01*
X113422355Y-114791184D01*
X113493385Y-114897488D01*
X113640832Y-115253457D01*
X113716000Y-115631349D01*
X113716000Y-116016651D01*
X113640832Y-116394543D01*
X113493385Y-116750512D01*
X113493384Y-116750513D01*
X113279324Y-117070877D01*
X113006877Y-117343324D01*
X112792816Y-117486355D01*
X112686512Y-117557385D01*
X112477991Y-117643757D01*
X112330544Y-117704832D01*
X112204579Y-117729888D01*
X111952651Y-117780000D01*
X111567349Y-117780000D01*
X111315421Y-117729888D01*
X111189456Y-117704832D01*
X111042009Y-117643757D01*
X110833488Y-117557385D01*
X110727184Y-117486355D01*
X110513123Y-117343324D01*
X110240676Y-117070877D01*
X110026616Y-116750513D01*
X110026615Y-116750512D01*
X109879168Y-116394543D01*
X109804000Y-116016651D01*
X109804000Y-115631349D01*
X109879168Y-115253457D01*
X110026615Y-114897488D01*
X110097645Y-114791184D01*
X110240676Y-114577123D01*
X110513123Y-114304676D01*
X110833487Y-114090616D01*
X110833488Y-114090615D01*
X111042009Y-114004243D01*
X111189456Y-113943168D01*
X111315421Y-113918112D01*
X111567349Y-113868000D01*
X111952651Y-113868000D01*
X112204579Y-113918112D01*
G37*
G36*
X182551000Y-116201000D02*
G01*
X181449000Y-116201000D01*
X181449000Y-113599000D01*
X182551000Y-113599000D01*
X182551000Y-116201000D01*
G37*
G36*
X174551000Y-116201000D02*
G01*
X173449000Y-116201000D01*
X173449000Y-113599000D01*
X174551000Y-113599000D01*
X174551000Y-116201000D01*
G37*
G36*
X176551000Y-116201000D02*
G01*
X175449000Y-116201000D01*
X175449000Y-113599000D01*
X176551000Y-113599000D01*
X176551000Y-116201000D01*
G37*
G36*
X178551000Y-116201000D02*
G01*
X177449000Y-116201000D01*
X177449000Y-113599000D01*
X178551000Y-113599000D01*
X178551000Y-116201000D01*
G37*
G36*
X180551000Y-116201000D02*
G01*
X179449000Y-116201000D01*
X179449000Y-113599000D01*
X180551000Y-113599000D01*
X180551000Y-116201000D01*
G37*
G36*
X184551000Y-116201000D02*
G01*
X183449000Y-116201000D01*
X183449000Y-113599000D01*
X184551000Y-113599000D01*
X184551000Y-116201000D01*
G37*
G36*
X186551000Y-116201000D02*
G01*
X185449000Y-116201000D01*
X185449000Y-113599000D01*
X186551000Y-113599000D01*
X186551000Y-116201000D01*
G37*
G36*
X188551000Y-116201000D02*
G01*
X187449000Y-116201000D01*
X187449000Y-113599000D01*
X188551000Y-113599000D01*
X188551000Y-116201000D01*
G37*
G36*
X131151000Y-114401000D02*
G01*
X125749000Y-114401000D01*
X125749000Y-111499000D01*
X131151000Y-111499000D01*
X131151000Y-114401000D01*
G37*
G36*
X159055997Y-111653051D02*
G01*
X159089652Y-111663261D01*
X159120665Y-111679838D01*
X159147851Y-111702149D01*
X159170162Y-111729335D01*
X159186739Y-111760348D01*
X159196949Y-111794003D01*
X159201000Y-111835138D01*
X159201000Y-113164862D01*
X159196949Y-113205997D01*
X159186739Y-113239652D01*
X159170162Y-113270665D01*
X159147851Y-113297851D01*
X159120665Y-113320162D01*
X159089652Y-113336739D01*
X159055997Y-113346949D01*
X159014862Y-113351000D01*
X155785138Y-113351000D01*
X155744003Y-113346949D01*
X155710348Y-113336739D01*
X155679335Y-113320162D01*
X155652149Y-113297851D01*
X155629838Y-113270665D01*
X155613261Y-113239652D01*
X155603051Y-113205997D01*
X155599000Y-113164862D01*
X155599000Y-111835138D01*
X155603051Y-111794003D01*
X155613261Y-111760348D01*
X155629838Y-111729335D01*
X155652149Y-111702149D01*
X155679335Y-111679838D01*
X155710348Y-111663261D01*
X155744003Y-111653051D01*
X155785138Y-111649000D01*
X159014862Y-111649000D01*
X159055997Y-111653051D01*
G37*
G36*
X138655997Y-111653051D02*
G01*
X138689652Y-111663261D01*
X138720665Y-111679838D01*
X138747851Y-111702149D01*
X138770162Y-111729335D01*
X138786739Y-111760348D01*
X138796949Y-111794003D01*
X138801000Y-111835138D01*
X138801000Y-113164862D01*
X138796949Y-113205997D01*
X138786739Y-113239652D01*
X138770162Y-113270665D01*
X138747851Y-113297851D01*
X138720665Y-113320162D01*
X138689652Y-113336739D01*
X138655997Y-113346949D01*
X138614862Y-113351000D01*
X135385138Y-113351000D01*
X135344003Y-113346949D01*
X135310348Y-113336739D01*
X135279335Y-113320162D01*
X135252149Y-113297851D01*
X135229838Y-113270665D01*
X135213261Y-113239652D01*
X135203051Y-113205997D01*
X135199000Y-113164862D01*
X135199000Y-111835138D01*
X135203051Y-111794003D01*
X135213261Y-111760348D01*
X135229838Y-111729335D01*
X135252149Y-111702149D01*
X135279335Y-111679838D01*
X135310348Y-111663261D01*
X135344003Y-111653051D01*
X135385138Y-111649000D01*
X138614862Y-111649000D01*
X138655997Y-111653051D01*
G37*
G36*
X144255997Y-111653051D02*
G01*
X144289652Y-111663261D01*
X144320665Y-111679838D01*
X144347851Y-111702149D01*
X144370162Y-111729335D01*
X144386739Y-111760348D01*
X144396949Y-111794003D01*
X144401000Y-111835138D01*
X144401000Y-113164862D01*
X144396949Y-113205997D01*
X144386739Y-113239652D01*
X144370162Y-113270665D01*
X144347851Y-113297851D01*
X144320665Y-113320162D01*
X144289652Y-113336739D01*
X144255997Y-113346949D01*
X144214862Y-113351000D01*
X140985138Y-113351000D01*
X140944003Y-113346949D01*
X140910348Y-113336739D01*
X140879335Y-113320162D01*
X140852149Y-113297851D01*
X140829838Y-113270665D01*
X140813261Y-113239652D01*
X140803051Y-113205997D01*
X140799000Y-113164862D01*
X140799000Y-111835138D01*
X140803051Y-111794003D01*
X140813261Y-111760348D01*
X140829838Y-111729335D01*
X140852149Y-111702149D01*
X140879335Y-111679838D01*
X140910348Y-111663261D01*
X140944003Y-111653051D01*
X140985138Y-111649000D01*
X144214862Y-111649000D01*
X144255997Y-111653051D01*
G37*
G36*
X148805997Y-111653051D02*
G01*
X148839652Y-111663261D01*
X148870665Y-111679838D01*
X148897851Y-111702149D01*
X148920162Y-111729335D01*
X148936739Y-111760348D01*
X148946949Y-111794003D01*
X148951000Y-111835138D01*
X148951000Y-113164862D01*
X148946949Y-113205997D01*
X148936739Y-113239652D01*
X148920162Y-113270665D01*
X148897851Y-113297851D01*
X148870665Y-113320162D01*
X148839652Y-113336739D01*
X148805997Y-113346949D01*
X148764862Y-113351000D01*
X145535138Y-113351000D01*
X145494003Y-113346949D01*
X145460348Y-113336739D01*
X145429335Y-113320162D01*
X145402149Y-113297851D01*
X145379838Y-113270665D01*
X145363261Y-113239652D01*
X145353051Y-113205997D01*
X145349000Y-113164862D01*
X145349000Y-111835138D01*
X145353051Y-111794003D01*
X145363261Y-111760348D01*
X145379838Y-111729335D01*
X145402149Y-111702149D01*
X145429335Y-111679838D01*
X145460348Y-111663261D01*
X145494003Y-111653051D01*
X145535138Y-111649000D01*
X148764862Y-111649000D01*
X148805997Y-111653051D01*
G37*
G36*
X164655997Y-111653051D02*
G01*
X164689652Y-111663261D01*
X164720665Y-111679838D01*
X164747851Y-111702149D01*
X164770162Y-111729335D01*
X164786739Y-111760348D01*
X164796949Y-111794003D01*
X164801000Y-111835138D01*
X164801000Y-113164862D01*
X164796949Y-113205997D01*
X164786739Y-113239652D01*
X164770162Y-113270665D01*
X164747851Y-113297851D01*
X164720665Y-113320162D01*
X164689652Y-113336739D01*
X164655997Y-113346949D01*
X164614862Y-113351000D01*
X161385138Y-113351000D01*
X161344003Y-113346949D01*
X161310348Y-113336739D01*
X161279335Y-113320162D01*
X161252149Y-113297851D01*
X161229838Y-113270665D01*
X161213261Y-113239652D01*
X161203051Y-113205997D01*
X161199000Y-113164862D01*
X161199000Y-111835138D01*
X161203051Y-111794003D01*
X161213261Y-111760348D01*
X161229838Y-111729335D01*
X161252149Y-111702149D01*
X161279335Y-111679838D01*
X161310348Y-111663261D01*
X161344003Y-111653051D01*
X161385138Y-111649000D01*
X164614862Y-111649000D01*
X164655997Y-111653051D01*
G37*
G36*
X154405997Y-111653051D02*
G01*
X154439652Y-111663261D01*
X154470665Y-111679838D01*
X154497851Y-111702149D01*
X154520162Y-111729335D01*
X154536739Y-111760348D01*
X154546949Y-111794003D01*
X154551000Y-111835138D01*
X154551000Y-113164862D01*
X154546949Y-113205997D01*
X154536739Y-113239652D01*
X154520162Y-113270665D01*
X154497851Y-113297851D01*
X154470665Y-113320162D01*
X154439652Y-113336739D01*
X154405997Y-113346949D01*
X154364862Y-113351000D01*
X151135138Y-113351000D01*
X151094003Y-113346949D01*
X151060348Y-113336739D01*
X151029335Y-113320162D01*
X151002149Y-113297851D01*
X150979838Y-113270665D01*
X150963261Y-113239652D01*
X150953051Y-113205997D01*
X150949000Y-113164862D01*
X150949000Y-111835138D01*
X150953051Y-111794003D01*
X150963261Y-111760348D01*
X150979838Y-111729335D01*
X151002149Y-111702149D01*
X151029335Y-111679838D01*
X151060348Y-111663261D01*
X151094003Y-111653051D01*
X151135138Y-111649000D01*
X154364862Y-111649000D01*
X154405997Y-111653051D01*
G37*
G36*
X186414499Y-111478445D02*
G01*
X186451995Y-111489820D01*
X186486554Y-111508292D01*
X186516847Y-111533153D01*
X186541708Y-111563446D01*
X186560180Y-111598005D01*
X186571555Y-111635501D01*
X186576000Y-111680638D01*
X186576000Y-112319362D01*
X186571555Y-112364499D01*
X186560180Y-112401995D01*
X186541708Y-112436554D01*
X186516847Y-112466847D01*
X186486554Y-112491708D01*
X186451995Y-112510180D01*
X186414499Y-112521555D01*
X186369362Y-112526000D01*
X185630638Y-112526000D01*
X185585501Y-112521555D01*
X185548005Y-112510180D01*
X185513446Y-112491708D01*
X185483153Y-112466847D01*
X185458292Y-112436554D01*
X185439820Y-112401995D01*
X185428445Y-112364499D01*
X185424000Y-112319362D01*
X185424000Y-111680638D01*
X185428445Y-111635501D01*
X185439820Y-111598005D01*
X185458292Y-111563446D01*
X185483153Y-111533153D01*
X185513446Y-111508292D01*
X185548005Y-111489820D01*
X185585501Y-111478445D01*
X185630638Y-111474000D01*
X186369362Y-111474000D01*
X186414499Y-111478445D01*
G37*
G36*
X188164499Y-111478445D02*
G01*
X188201995Y-111489820D01*
X188236554Y-111508292D01*
X188266847Y-111533153D01*
X188291708Y-111563446D01*
X188310180Y-111598005D01*
X188321555Y-111635501D01*
X188326000Y-111680638D01*
X188326000Y-112319362D01*
X188321555Y-112364499D01*
X188310180Y-112401995D01*
X188291708Y-112436554D01*
X188266847Y-112466847D01*
X188236554Y-112491708D01*
X188201995Y-112510180D01*
X188164499Y-112521555D01*
X188119362Y-112526000D01*
X187380638Y-112526000D01*
X187335501Y-112521555D01*
X187298005Y-112510180D01*
X187263446Y-112491708D01*
X187233153Y-112466847D01*
X187208292Y-112436554D01*
X187189820Y-112401995D01*
X187178445Y-112364499D01*
X187174000Y-112319362D01*
X187174000Y-111680638D01*
X187178445Y-111635501D01*
X187189820Y-111598005D01*
X187208292Y-111563446D01*
X187233153Y-111533153D01*
X187263446Y-111508292D01*
X187298005Y-111489820D01*
X187335501Y-111478445D01*
X187380638Y-111474000D01*
X188119362Y-111474000D01*
X188164499Y-111478445D01*
G37*
G36*
X182709999Y-110699737D02*
G01*
X182719608Y-110702652D01*
X182728472Y-110707390D01*
X182736237Y-110713763D01*
X182746448Y-110726206D01*
X182753378Y-110736575D01*
X182770705Y-110753902D01*
X182791080Y-110767515D01*
X182813720Y-110776891D01*
X182837753Y-110781671D01*
X182862257Y-110781670D01*
X182886290Y-110776888D01*
X182908929Y-110767510D01*
X182929302Y-110753895D01*
X182946629Y-110736568D01*
X182953558Y-110726198D01*
X182963763Y-110713763D01*
X182971528Y-110707390D01*
X182980392Y-110702652D01*
X182990001Y-110699737D01*
X183006140Y-110698148D01*
X183493861Y-110698148D01*
X183512199Y-110699954D01*
X183524450Y-110700556D01*
X183542869Y-110700556D01*
X183565149Y-110702750D01*
X183649233Y-110719476D01*
X183670660Y-110725976D01*
X183749858Y-110758780D01*
X183755303Y-110761691D01*
X183755309Y-110761693D01*
X183764169Y-110766429D01*
X183764173Y-110766432D01*
X183769614Y-110769340D01*
X183840899Y-110816971D01*
X183858204Y-110831172D01*
X183918828Y-110891796D01*
X183933029Y-110909101D01*
X183980660Y-110980386D01*
X183983568Y-110985827D01*
X183983571Y-110985831D01*
X183988307Y-110994691D01*
X183988309Y-110994697D01*
X183991220Y-111000142D01*
X184024024Y-111079340D01*
X184030524Y-111100767D01*
X184047250Y-111184851D01*
X184049444Y-111207131D01*
X184049444Y-111225550D01*
X184050046Y-111237801D01*
X184051852Y-111256139D01*
X184051852Y-111743862D01*
X184050046Y-111762199D01*
X184049444Y-111774450D01*
X184049444Y-111792869D01*
X184047250Y-111815149D01*
X184030524Y-111899233D01*
X184024024Y-111920660D01*
X183991220Y-111999858D01*
X183988309Y-112005303D01*
X183988307Y-112005309D01*
X183983571Y-112014169D01*
X183983568Y-112014173D01*
X183980660Y-112019614D01*
X183933029Y-112090899D01*
X183918828Y-112108204D01*
X183858204Y-112168828D01*
X183840899Y-112183029D01*
X183769614Y-112230660D01*
X183764173Y-112233568D01*
X183764169Y-112233571D01*
X183755309Y-112238307D01*
X183755303Y-112238309D01*
X183749858Y-112241220D01*
X183670660Y-112274024D01*
X183649233Y-112280524D01*
X183565149Y-112297250D01*
X183542869Y-112299444D01*
X183524450Y-112299444D01*
X183512199Y-112300046D01*
X183493862Y-112301852D01*
X183006140Y-112301852D01*
X182990001Y-112300263D01*
X182980392Y-112297348D01*
X182971528Y-112292610D01*
X182963763Y-112286237D01*
X182953552Y-112273794D01*
X182946622Y-112263425D01*
X182929295Y-112246098D01*
X182908920Y-112232485D01*
X182886280Y-112223109D01*
X182862247Y-112218329D01*
X182837743Y-112218330D01*
X182813710Y-112223112D01*
X182791071Y-112232490D01*
X182770698Y-112246105D01*
X182753371Y-112263432D01*
X182746442Y-112273802D01*
X182736237Y-112286237D01*
X182728472Y-112292610D01*
X182719608Y-112297348D01*
X182709999Y-112300263D01*
X182693860Y-112301852D01*
X182206138Y-112301852D01*
X182187801Y-112300046D01*
X182175550Y-112299444D01*
X182157131Y-112299444D01*
X182134851Y-112297250D01*
X182050767Y-112280524D01*
X182029340Y-112274024D01*
X181950142Y-112241220D01*
X181944697Y-112238309D01*
X181944691Y-112238307D01*
X181935831Y-112233571D01*
X181935827Y-112233568D01*
X181930386Y-112230660D01*
X181859101Y-112183029D01*
X181841796Y-112168828D01*
X181781172Y-112108204D01*
X181766971Y-112090899D01*
X181719340Y-112019614D01*
X181716432Y-112014173D01*
X181716429Y-112014169D01*
X181711693Y-112005309D01*
X181711691Y-112005303D01*
X181708780Y-111999858D01*
X181675976Y-111920660D01*
X181669476Y-111899233D01*
X181652750Y-111815149D01*
X181650556Y-111792869D01*
X181650556Y-111774450D01*
X181649954Y-111762199D01*
X181648148Y-111743862D01*
X181648148Y-111256139D01*
X181649954Y-111237801D01*
X181650556Y-111225550D01*
X181650556Y-111207131D01*
X181652750Y-111184851D01*
X181669476Y-111100767D01*
X181675976Y-111079340D01*
X181708780Y-111000142D01*
X181711691Y-110994697D01*
X181711693Y-110994691D01*
X181716429Y-110985831D01*
X181716432Y-110985827D01*
X181719340Y-110980386D01*
X181766971Y-110909101D01*
X181781172Y-110891796D01*
X181841796Y-110831172D01*
X181859101Y-110816971D01*
X181930386Y-110769340D01*
X181935827Y-110766432D01*
X181935831Y-110766429D01*
X181944691Y-110761693D01*
X181944697Y-110761691D01*
X181950142Y-110758780D01*
X182029340Y-110725976D01*
X182050767Y-110719476D01*
X182134851Y-110702750D01*
X182157131Y-110700556D01*
X182175550Y-110700556D01*
X182187801Y-110699954D01*
X182206139Y-110698148D01*
X182693860Y-110698148D01*
X182709999Y-110699737D01*
G37*
G36*
X169300680Y-112300680D02*
G01*
X166699320Y-112300680D01*
X166699320Y-109699320D01*
X169300680Y-109699320D01*
X169300680Y-112300680D01*
G37*
G36*
X179809393Y-109749304D02*
G01*
X180046101Y-109847352D01*
X180046103Y-109847353D01*
X180259135Y-109989696D01*
X180440304Y-110170865D01*
X180582647Y-110383897D01*
X180582648Y-110383899D01*
X180680696Y-110620607D01*
X180730680Y-110871893D01*
X180730680Y-111128107D01*
X180680696Y-111379393D01*
X180582648Y-111616101D01*
X180582647Y-111616103D01*
X180440304Y-111829135D01*
X180259135Y-112010304D01*
X180046103Y-112152647D01*
X180046102Y-112152648D01*
X180046101Y-112152648D01*
X179809393Y-112250696D01*
X179558107Y-112300680D01*
X179301893Y-112300680D01*
X179050607Y-112250696D01*
X178813899Y-112152648D01*
X178813898Y-112152648D01*
X178813897Y-112152647D01*
X178600865Y-112010304D01*
X178419696Y-111829135D01*
X178277353Y-111616103D01*
X178277352Y-111616101D01*
X178179304Y-111379393D01*
X178129320Y-111128107D01*
X178129320Y-110871893D01*
X178179304Y-110620607D01*
X178277352Y-110383899D01*
X178277353Y-110383897D01*
X178419696Y-110170865D01*
X178600865Y-109989696D01*
X178813897Y-109847353D01*
X178813899Y-109847352D01*
X179050607Y-109749304D01*
X179301893Y-109699320D01*
X179558107Y-109699320D01*
X179809393Y-109749304D01*
G37*
G36*
X175999393Y-109749304D02*
G01*
X176236101Y-109847352D01*
X176236103Y-109847353D01*
X176449135Y-109989696D01*
X176630304Y-110170865D01*
X176772647Y-110383897D01*
X176772648Y-110383899D01*
X176870696Y-110620607D01*
X176920680Y-110871893D01*
X176920680Y-111128107D01*
X176870696Y-111379393D01*
X176772648Y-111616101D01*
X176772647Y-111616103D01*
X176630304Y-111829135D01*
X176449135Y-112010304D01*
X176236103Y-112152647D01*
X176236102Y-112152648D01*
X176236101Y-112152648D01*
X175999393Y-112250696D01*
X175748107Y-112300680D01*
X175491893Y-112300680D01*
X175240607Y-112250696D01*
X175003899Y-112152648D01*
X175003898Y-112152648D01*
X175003897Y-112152647D01*
X174790865Y-112010304D01*
X174609696Y-111829135D01*
X174467353Y-111616103D01*
X174467352Y-111616101D01*
X174369304Y-111379393D01*
X174319320Y-111128107D01*
X174319320Y-110871893D01*
X174369304Y-110620607D01*
X174467352Y-110383899D01*
X174467353Y-110383897D01*
X174609696Y-110170865D01*
X174790865Y-109989696D01*
X175003897Y-109847353D01*
X175003899Y-109847352D01*
X175240607Y-109749304D01*
X175491893Y-109699320D01*
X175748107Y-109699320D01*
X175999393Y-109749304D01*
G37*
G36*
X172189393Y-109749304D02*
G01*
X172426101Y-109847352D01*
X172426103Y-109847353D01*
X172639135Y-109989696D01*
X172820304Y-110170865D01*
X172962647Y-110383897D01*
X172962648Y-110383899D01*
X173060696Y-110620607D01*
X173110680Y-110871893D01*
X173110680Y-111128107D01*
X173060696Y-111379393D01*
X172962648Y-111616101D01*
X172962647Y-111616103D01*
X172820304Y-111829135D01*
X172639135Y-112010304D01*
X172426103Y-112152647D01*
X172426102Y-112152648D01*
X172426101Y-112152648D01*
X172189393Y-112250696D01*
X171938107Y-112300680D01*
X171681893Y-112300680D01*
X171430607Y-112250696D01*
X171193899Y-112152648D01*
X171193898Y-112152648D01*
X171193897Y-112152647D01*
X170980865Y-112010304D01*
X170799696Y-111829135D01*
X170657353Y-111616103D01*
X170657352Y-111616101D01*
X170559304Y-111379393D01*
X170509320Y-111128107D01*
X170509320Y-110871893D01*
X170559304Y-110620607D01*
X170657352Y-110383899D01*
X170657353Y-110383897D01*
X170799696Y-110170865D01*
X170980865Y-109989696D01*
X171193897Y-109847353D01*
X171193899Y-109847352D01*
X171430607Y-109749304D01*
X171681893Y-109699320D01*
X171938107Y-109699320D01*
X172189393Y-109749304D01*
G37*
G36*
X186539499Y-109478445D02*
G01*
X186576995Y-109489820D01*
X186611554Y-109508292D01*
X186641847Y-109533153D01*
X186666708Y-109563446D01*
X186685180Y-109598005D01*
X186696555Y-109635501D01*
X186701000Y-109680638D01*
X186701000Y-110319362D01*
X186696555Y-110364499D01*
X186685180Y-110401995D01*
X186666708Y-110436554D01*
X186641847Y-110466847D01*
X186611554Y-110491708D01*
X186576995Y-110510180D01*
X186539499Y-110521555D01*
X186494362Y-110526000D01*
X185755638Y-110526000D01*
X185710501Y-110521555D01*
X185673005Y-110510180D01*
X185638446Y-110491708D01*
X185608153Y-110466847D01*
X185583292Y-110436554D01*
X185564820Y-110401995D01*
X185553445Y-110364499D01*
X185549000Y-110319362D01*
X185549000Y-109680638D01*
X185553445Y-109635501D01*
X185564820Y-109598005D01*
X185583292Y-109563446D01*
X185608153Y-109533153D01*
X185638446Y-109508292D01*
X185673005Y-109489820D01*
X185710501Y-109478445D01*
X185755638Y-109474000D01*
X186494362Y-109474000D01*
X186539499Y-109478445D01*
G37*
G36*
X188289499Y-109478445D02*
G01*
X188326995Y-109489820D01*
X188361554Y-109508292D01*
X188391847Y-109533153D01*
X188416708Y-109563446D01*
X188435180Y-109598005D01*
X188446555Y-109635501D01*
X188451000Y-109680638D01*
X188451000Y-110319362D01*
X188446555Y-110364499D01*
X188435180Y-110401995D01*
X188416708Y-110436554D01*
X188391847Y-110466847D01*
X188361554Y-110491708D01*
X188326995Y-110510180D01*
X188289499Y-110521555D01*
X188244362Y-110526000D01*
X187505638Y-110526000D01*
X187460501Y-110521555D01*
X187423005Y-110510180D01*
X187388446Y-110491708D01*
X187358153Y-110466847D01*
X187333292Y-110436554D01*
X187314820Y-110401995D01*
X187303445Y-110364499D01*
X187299000Y-110319362D01*
X187299000Y-109680638D01*
X187303445Y-109635501D01*
X187314820Y-109598005D01*
X187333292Y-109563446D01*
X187358153Y-109533153D01*
X187388446Y-109508292D01*
X187423005Y-109489820D01*
X187460501Y-109478445D01*
X187505638Y-109474000D01*
X188244362Y-109474000D01*
X188289499Y-109478445D01*
G37*
M02*
