G04 #@! TF.GenerationSoftware,KiCad,Pcbnew,5.1.5+dfsg1-2build2*
G04 #@! TF.CreationDate,2020-09-23T11:02:05-04:00*
G04 #@! TF.ProjectId,Wifi_Geiger,57696669-5f47-4656-9967-65722e6b6963,rev?*
G04 #@! TF.SameCoordinates,Original*
G04 #@! TF.FileFunction,Copper,L2,Bot*
G04 #@! TF.FilePolarity,Positive*
%FSLAX46Y46*%
G04 Gerber Fmt 4.6, Leading zero omitted, Abs format (unit mm)*
G04 Created by KiCad (PCBNEW 5.1.5+dfsg1-2build2) date 2020-09-23 11:02:05*
%MOMM*%
%LPD*%
G04 APERTURE LIST*
%ADD10C,0.100000*%
%ADD11R,2.499360X2.499360*%
%ADD12C,2.499360*%
%ADD13R,1.550000X1.300000*%
%ADD14R,0.600000X2.000000*%
%ADD15C,3.810000*%
%ADD16C,0.800000*%
%ADD17C,0.500000*%
%ADD18C,0.250000*%
G04 APERTURE END LIST*
G04 #@! TA.AperFunction,SMDPad,CuDef*
D10*
G36*
X187060779Y-131276144D02*
G01*
X187083834Y-131279563D01*
X187106443Y-131285227D01*
X187128387Y-131293079D01*
X187149457Y-131303044D01*
X187169448Y-131315026D01*
X187188168Y-131328910D01*
X187205438Y-131344562D01*
X187221090Y-131361832D01*
X187234974Y-131380552D01*
X187246956Y-131400543D01*
X187256921Y-131421613D01*
X187264773Y-131443557D01*
X187270437Y-131466166D01*
X187273856Y-131489221D01*
X187275000Y-131512500D01*
X187275000Y-131987500D01*
X187273856Y-132010779D01*
X187270437Y-132033834D01*
X187264773Y-132056443D01*
X187256921Y-132078387D01*
X187246956Y-132099457D01*
X187234974Y-132119448D01*
X187221090Y-132138168D01*
X187205438Y-132155438D01*
X187188168Y-132171090D01*
X187169448Y-132184974D01*
X187149457Y-132196956D01*
X187128387Y-132206921D01*
X187106443Y-132214773D01*
X187083834Y-132220437D01*
X187060779Y-132223856D01*
X187037500Y-132225000D01*
X186462500Y-132225000D01*
X186439221Y-132223856D01*
X186416166Y-132220437D01*
X186393557Y-132214773D01*
X186371613Y-132206921D01*
X186350543Y-132196956D01*
X186330552Y-132184974D01*
X186311832Y-132171090D01*
X186294562Y-132155438D01*
X186278910Y-132138168D01*
X186265026Y-132119448D01*
X186253044Y-132099457D01*
X186243079Y-132078387D01*
X186235227Y-132056443D01*
X186229563Y-132033834D01*
X186226144Y-132010779D01*
X186225000Y-131987500D01*
X186225000Y-131512500D01*
X186226144Y-131489221D01*
X186229563Y-131466166D01*
X186235227Y-131443557D01*
X186243079Y-131421613D01*
X186253044Y-131400543D01*
X186265026Y-131380552D01*
X186278910Y-131361832D01*
X186294562Y-131344562D01*
X186311832Y-131328910D01*
X186330552Y-131315026D01*
X186350543Y-131303044D01*
X186371613Y-131293079D01*
X186393557Y-131285227D01*
X186416166Y-131279563D01*
X186439221Y-131276144D01*
X186462500Y-131275000D01*
X187037500Y-131275000D01*
X187060779Y-131276144D01*
G37*
G04 #@! TD.AperFunction*
G04 #@! TA.AperFunction,SMDPad,CuDef*
G36*
X188810779Y-131276144D02*
G01*
X188833834Y-131279563D01*
X188856443Y-131285227D01*
X188878387Y-131293079D01*
X188899457Y-131303044D01*
X188919448Y-131315026D01*
X188938168Y-131328910D01*
X188955438Y-131344562D01*
X188971090Y-131361832D01*
X188984974Y-131380552D01*
X188996956Y-131400543D01*
X189006921Y-131421613D01*
X189014773Y-131443557D01*
X189020437Y-131466166D01*
X189023856Y-131489221D01*
X189025000Y-131512500D01*
X189025000Y-131987500D01*
X189023856Y-132010779D01*
X189020437Y-132033834D01*
X189014773Y-132056443D01*
X189006921Y-132078387D01*
X188996956Y-132099457D01*
X188984974Y-132119448D01*
X188971090Y-132138168D01*
X188955438Y-132155438D01*
X188938168Y-132171090D01*
X188919448Y-132184974D01*
X188899457Y-132196956D01*
X188878387Y-132206921D01*
X188856443Y-132214773D01*
X188833834Y-132220437D01*
X188810779Y-132223856D01*
X188787500Y-132225000D01*
X188212500Y-132225000D01*
X188189221Y-132223856D01*
X188166166Y-132220437D01*
X188143557Y-132214773D01*
X188121613Y-132206921D01*
X188100543Y-132196956D01*
X188080552Y-132184974D01*
X188061832Y-132171090D01*
X188044562Y-132155438D01*
X188028910Y-132138168D01*
X188015026Y-132119448D01*
X188003044Y-132099457D01*
X187993079Y-132078387D01*
X187985227Y-132056443D01*
X187979563Y-132033834D01*
X187976144Y-132010779D01*
X187975000Y-131987500D01*
X187975000Y-131512500D01*
X187976144Y-131489221D01*
X187979563Y-131466166D01*
X187985227Y-131443557D01*
X187993079Y-131421613D01*
X188003044Y-131400543D01*
X188015026Y-131380552D01*
X188028910Y-131361832D01*
X188044562Y-131344562D01*
X188061832Y-131328910D01*
X188080552Y-131315026D01*
X188100543Y-131303044D01*
X188121613Y-131293079D01*
X188143557Y-131285227D01*
X188166166Y-131279563D01*
X188189221Y-131276144D01*
X188212500Y-131275000D01*
X188787500Y-131275000D01*
X188810779Y-131276144D01*
G37*
G04 #@! TD.AperFunction*
G04 #@! TA.AperFunction,SMDPad,CuDef*
G36*
X155858329Y-121576023D02*
G01*
X155878957Y-121579083D01*
X155899185Y-121584150D01*
X155918820Y-121591176D01*
X155937672Y-121600092D01*
X155955559Y-121610813D01*
X155972309Y-121623235D01*
X155987760Y-121637240D01*
X156001765Y-121652691D01*
X156014187Y-121669441D01*
X156024908Y-121687328D01*
X156033824Y-121706180D01*
X156040850Y-121725815D01*
X156045917Y-121746043D01*
X156048977Y-121766671D01*
X156050000Y-121787500D01*
X156050000Y-122212500D01*
X156048977Y-122233329D01*
X156045917Y-122253957D01*
X156040850Y-122274185D01*
X156033824Y-122293820D01*
X156024908Y-122312672D01*
X156014187Y-122330559D01*
X156001765Y-122347309D01*
X155987760Y-122362760D01*
X155972309Y-122376765D01*
X155955559Y-122389187D01*
X155937672Y-122399908D01*
X155918820Y-122408824D01*
X155899185Y-122415850D01*
X155878957Y-122420917D01*
X155858329Y-122423977D01*
X155837500Y-122425000D01*
X155037500Y-122425000D01*
X155016671Y-122423977D01*
X154996043Y-122420917D01*
X154975815Y-122415850D01*
X154956180Y-122408824D01*
X154937328Y-122399908D01*
X154919441Y-122389187D01*
X154902691Y-122376765D01*
X154887240Y-122362760D01*
X154873235Y-122347309D01*
X154860813Y-122330559D01*
X154850092Y-122312672D01*
X154841176Y-122293820D01*
X154834150Y-122274185D01*
X154829083Y-122253957D01*
X154826023Y-122233329D01*
X154825000Y-122212500D01*
X154825000Y-121787500D01*
X154826023Y-121766671D01*
X154829083Y-121746043D01*
X154834150Y-121725815D01*
X154841176Y-121706180D01*
X154850092Y-121687328D01*
X154860813Y-121669441D01*
X154873235Y-121652691D01*
X154887240Y-121637240D01*
X154902691Y-121623235D01*
X154919441Y-121610813D01*
X154937328Y-121600092D01*
X154956180Y-121591176D01*
X154975815Y-121584150D01*
X154996043Y-121579083D01*
X155016671Y-121576023D01*
X155037500Y-121575000D01*
X155837500Y-121575000D01*
X155858329Y-121576023D01*
G37*
G04 #@! TD.AperFunction*
G04 #@! TA.AperFunction,SMDPad,CuDef*
G36*
X157483329Y-121576023D02*
G01*
X157503957Y-121579083D01*
X157524185Y-121584150D01*
X157543820Y-121591176D01*
X157562672Y-121600092D01*
X157580559Y-121610813D01*
X157597309Y-121623235D01*
X157612760Y-121637240D01*
X157626765Y-121652691D01*
X157639187Y-121669441D01*
X157649908Y-121687328D01*
X157658824Y-121706180D01*
X157665850Y-121725815D01*
X157670917Y-121746043D01*
X157673977Y-121766671D01*
X157675000Y-121787500D01*
X157675000Y-122212500D01*
X157673977Y-122233329D01*
X157670917Y-122253957D01*
X157665850Y-122274185D01*
X157658824Y-122293820D01*
X157649908Y-122312672D01*
X157639187Y-122330559D01*
X157626765Y-122347309D01*
X157612760Y-122362760D01*
X157597309Y-122376765D01*
X157580559Y-122389187D01*
X157562672Y-122399908D01*
X157543820Y-122408824D01*
X157524185Y-122415850D01*
X157503957Y-122420917D01*
X157483329Y-122423977D01*
X157462500Y-122425000D01*
X156662500Y-122425000D01*
X156641671Y-122423977D01*
X156621043Y-122420917D01*
X156600815Y-122415850D01*
X156581180Y-122408824D01*
X156562328Y-122399908D01*
X156544441Y-122389187D01*
X156527691Y-122376765D01*
X156512240Y-122362760D01*
X156498235Y-122347309D01*
X156485813Y-122330559D01*
X156475092Y-122312672D01*
X156466176Y-122293820D01*
X156459150Y-122274185D01*
X156454083Y-122253957D01*
X156451023Y-122233329D01*
X156450000Y-122212500D01*
X156450000Y-121787500D01*
X156451023Y-121766671D01*
X156454083Y-121746043D01*
X156459150Y-121725815D01*
X156466176Y-121706180D01*
X156475092Y-121687328D01*
X156485813Y-121669441D01*
X156498235Y-121652691D01*
X156512240Y-121637240D01*
X156527691Y-121623235D01*
X156544441Y-121610813D01*
X156562328Y-121600092D01*
X156581180Y-121591176D01*
X156600815Y-121584150D01*
X156621043Y-121579083D01*
X156641671Y-121576023D01*
X156662500Y-121575000D01*
X157462500Y-121575000D01*
X157483329Y-121576023D01*
G37*
G04 #@! TD.AperFunction*
G04 #@! TA.AperFunction,SMDPad,CuDef*
G36*
X181149504Y-121313704D02*
G01*
X181173773Y-121317304D01*
X181197571Y-121323265D01*
X181220671Y-121331530D01*
X181242849Y-121342020D01*
X181263893Y-121354633D01*
X181283598Y-121369247D01*
X181301777Y-121385723D01*
X181318253Y-121403902D01*
X181332867Y-121423607D01*
X181345480Y-121444651D01*
X181355970Y-121466829D01*
X181364235Y-121489929D01*
X181370196Y-121513727D01*
X181373796Y-121537996D01*
X181375000Y-121562500D01*
X181375000Y-122487500D01*
X181373796Y-122512004D01*
X181370196Y-122536273D01*
X181364235Y-122560071D01*
X181355970Y-122583171D01*
X181345480Y-122605349D01*
X181332867Y-122626393D01*
X181318253Y-122646098D01*
X181301777Y-122664277D01*
X181283598Y-122680753D01*
X181263893Y-122695367D01*
X181242849Y-122707980D01*
X181220671Y-122718470D01*
X181197571Y-122726735D01*
X181173773Y-122732696D01*
X181149504Y-122736296D01*
X181125000Y-122737500D01*
X179875000Y-122737500D01*
X179850496Y-122736296D01*
X179826227Y-122732696D01*
X179802429Y-122726735D01*
X179779329Y-122718470D01*
X179757151Y-122707980D01*
X179736107Y-122695367D01*
X179716402Y-122680753D01*
X179698223Y-122664277D01*
X179681747Y-122646098D01*
X179667133Y-122626393D01*
X179654520Y-122605349D01*
X179644030Y-122583171D01*
X179635765Y-122560071D01*
X179629804Y-122536273D01*
X179626204Y-122512004D01*
X179625000Y-122487500D01*
X179625000Y-121562500D01*
X179626204Y-121537996D01*
X179629804Y-121513727D01*
X179635765Y-121489929D01*
X179644030Y-121466829D01*
X179654520Y-121444651D01*
X179667133Y-121423607D01*
X179681747Y-121403902D01*
X179698223Y-121385723D01*
X179716402Y-121369247D01*
X179736107Y-121354633D01*
X179757151Y-121342020D01*
X179779329Y-121331530D01*
X179802429Y-121323265D01*
X179826227Y-121317304D01*
X179850496Y-121313704D01*
X179875000Y-121312500D01*
X181125000Y-121312500D01*
X181149504Y-121313704D01*
G37*
G04 #@! TD.AperFunction*
G04 #@! TA.AperFunction,SMDPad,CuDef*
G36*
X181149504Y-124288704D02*
G01*
X181173773Y-124292304D01*
X181197571Y-124298265D01*
X181220671Y-124306530D01*
X181242849Y-124317020D01*
X181263893Y-124329633D01*
X181283598Y-124344247D01*
X181301777Y-124360723D01*
X181318253Y-124378902D01*
X181332867Y-124398607D01*
X181345480Y-124419651D01*
X181355970Y-124441829D01*
X181364235Y-124464929D01*
X181370196Y-124488727D01*
X181373796Y-124512996D01*
X181375000Y-124537500D01*
X181375000Y-125462500D01*
X181373796Y-125487004D01*
X181370196Y-125511273D01*
X181364235Y-125535071D01*
X181355970Y-125558171D01*
X181345480Y-125580349D01*
X181332867Y-125601393D01*
X181318253Y-125621098D01*
X181301777Y-125639277D01*
X181283598Y-125655753D01*
X181263893Y-125670367D01*
X181242849Y-125682980D01*
X181220671Y-125693470D01*
X181197571Y-125701735D01*
X181173773Y-125707696D01*
X181149504Y-125711296D01*
X181125000Y-125712500D01*
X179875000Y-125712500D01*
X179850496Y-125711296D01*
X179826227Y-125707696D01*
X179802429Y-125701735D01*
X179779329Y-125693470D01*
X179757151Y-125682980D01*
X179736107Y-125670367D01*
X179716402Y-125655753D01*
X179698223Y-125639277D01*
X179681747Y-125621098D01*
X179667133Y-125601393D01*
X179654520Y-125580349D01*
X179644030Y-125558171D01*
X179635765Y-125535071D01*
X179629804Y-125511273D01*
X179626204Y-125487004D01*
X179625000Y-125462500D01*
X179625000Y-124537500D01*
X179626204Y-124512996D01*
X179629804Y-124488727D01*
X179635765Y-124464929D01*
X179644030Y-124441829D01*
X179654520Y-124419651D01*
X179667133Y-124398607D01*
X179681747Y-124378902D01*
X179698223Y-124360723D01*
X179716402Y-124344247D01*
X179736107Y-124329633D01*
X179757151Y-124317020D01*
X179779329Y-124306530D01*
X179802429Y-124298265D01*
X179826227Y-124292304D01*
X179850496Y-124288704D01*
X179875000Y-124287500D01*
X181125000Y-124287500D01*
X181149504Y-124288704D01*
G37*
G04 #@! TD.AperFunction*
D11*
X168000000Y-111000000D03*
D12*
X171810000Y-111000000D03*
X175620000Y-111000000D03*
X179430000Y-111000000D03*
G04 #@! TA.AperFunction,SMDPad,CuDef*
D10*
G36*
X182560779Y-131276144D02*
G01*
X182583834Y-131279563D01*
X182606443Y-131285227D01*
X182628387Y-131293079D01*
X182649457Y-131303044D01*
X182669448Y-131315026D01*
X182688168Y-131328910D01*
X182705438Y-131344562D01*
X182721090Y-131361832D01*
X182734974Y-131380552D01*
X182746956Y-131400543D01*
X182756921Y-131421613D01*
X182764773Y-131443557D01*
X182770437Y-131466166D01*
X182773856Y-131489221D01*
X182775000Y-131512500D01*
X182775000Y-131987500D01*
X182773856Y-132010779D01*
X182770437Y-132033834D01*
X182764773Y-132056443D01*
X182756921Y-132078387D01*
X182746956Y-132099457D01*
X182734974Y-132119448D01*
X182721090Y-132138168D01*
X182705438Y-132155438D01*
X182688168Y-132171090D01*
X182669448Y-132184974D01*
X182649457Y-132196956D01*
X182628387Y-132206921D01*
X182606443Y-132214773D01*
X182583834Y-132220437D01*
X182560779Y-132223856D01*
X182537500Y-132225000D01*
X181962500Y-132225000D01*
X181939221Y-132223856D01*
X181916166Y-132220437D01*
X181893557Y-132214773D01*
X181871613Y-132206921D01*
X181850543Y-132196956D01*
X181830552Y-132184974D01*
X181811832Y-132171090D01*
X181794562Y-132155438D01*
X181778910Y-132138168D01*
X181765026Y-132119448D01*
X181753044Y-132099457D01*
X181743079Y-132078387D01*
X181735227Y-132056443D01*
X181729563Y-132033834D01*
X181726144Y-132010779D01*
X181725000Y-131987500D01*
X181725000Y-131512500D01*
X181726144Y-131489221D01*
X181729563Y-131466166D01*
X181735227Y-131443557D01*
X181743079Y-131421613D01*
X181753044Y-131400543D01*
X181765026Y-131380552D01*
X181778910Y-131361832D01*
X181794562Y-131344562D01*
X181811832Y-131328910D01*
X181830552Y-131315026D01*
X181850543Y-131303044D01*
X181871613Y-131293079D01*
X181893557Y-131285227D01*
X181916166Y-131279563D01*
X181939221Y-131276144D01*
X181962500Y-131275000D01*
X182537500Y-131275000D01*
X182560779Y-131276144D01*
G37*
G04 #@! TD.AperFunction*
G04 #@! TA.AperFunction,SMDPad,CuDef*
G36*
X184310779Y-131276144D02*
G01*
X184333834Y-131279563D01*
X184356443Y-131285227D01*
X184378387Y-131293079D01*
X184399457Y-131303044D01*
X184419448Y-131315026D01*
X184438168Y-131328910D01*
X184455438Y-131344562D01*
X184471090Y-131361832D01*
X184484974Y-131380552D01*
X184496956Y-131400543D01*
X184506921Y-131421613D01*
X184514773Y-131443557D01*
X184520437Y-131466166D01*
X184523856Y-131489221D01*
X184525000Y-131512500D01*
X184525000Y-131987500D01*
X184523856Y-132010779D01*
X184520437Y-132033834D01*
X184514773Y-132056443D01*
X184506921Y-132078387D01*
X184496956Y-132099457D01*
X184484974Y-132119448D01*
X184471090Y-132138168D01*
X184455438Y-132155438D01*
X184438168Y-132171090D01*
X184419448Y-132184974D01*
X184399457Y-132196956D01*
X184378387Y-132206921D01*
X184356443Y-132214773D01*
X184333834Y-132220437D01*
X184310779Y-132223856D01*
X184287500Y-132225000D01*
X183712500Y-132225000D01*
X183689221Y-132223856D01*
X183666166Y-132220437D01*
X183643557Y-132214773D01*
X183621613Y-132206921D01*
X183600543Y-132196956D01*
X183580552Y-132184974D01*
X183561832Y-132171090D01*
X183544562Y-132155438D01*
X183528910Y-132138168D01*
X183515026Y-132119448D01*
X183503044Y-132099457D01*
X183493079Y-132078387D01*
X183485227Y-132056443D01*
X183479563Y-132033834D01*
X183476144Y-132010779D01*
X183475000Y-131987500D01*
X183475000Y-131512500D01*
X183476144Y-131489221D01*
X183479563Y-131466166D01*
X183485227Y-131443557D01*
X183493079Y-131421613D01*
X183503044Y-131400543D01*
X183515026Y-131380552D01*
X183528910Y-131361832D01*
X183544562Y-131344562D01*
X183561832Y-131328910D01*
X183580552Y-131315026D01*
X183600543Y-131303044D01*
X183621613Y-131293079D01*
X183643557Y-131285227D01*
X183666166Y-131279563D01*
X183689221Y-131276144D01*
X183712500Y-131275000D01*
X184287500Y-131275000D01*
X184310779Y-131276144D01*
G37*
G04 #@! TD.AperFunction*
G04 #@! TA.AperFunction,SMDPad,CuDef*
G36*
X177310779Y-118776144D02*
G01*
X177333834Y-118779563D01*
X177356443Y-118785227D01*
X177378387Y-118793079D01*
X177399457Y-118803044D01*
X177419448Y-118815026D01*
X177438168Y-118828910D01*
X177455438Y-118844562D01*
X177471090Y-118861832D01*
X177484974Y-118880552D01*
X177496956Y-118900543D01*
X177506921Y-118921613D01*
X177514773Y-118943557D01*
X177520437Y-118966166D01*
X177523856Y-118989221D01*
X177525000Y-119012500D01*
X177525000Y-119487500D01*
X177523856Y-119510779D01*
X177520437Y-119533834D01*
X177514773Y-119556443D01*
X177506921Y-119578387D01*
X177496956Y-119599457D01*
X177484974Y-119619448D01*
X177471090Y-119638168D01*
X177455438Y-119655438D01*
X177438168Y-119671090D01*
X177419448Y-119684974D01*
X177399457Y-119696956D01*
X177378387Y-119706921D01*
X177356443Y-119714773D01*
X177333834Y-119720437D01*
X177310779Y-119723856D01*
X177287500Y-119725000D01*
X176712500Y-119725000D01*
X176689221Y-119723856D01*
X176666166Y-119720437D01*
X176643557Y-119714773D01*
X176621613Y-119706921D01*
X176600543Y-119696956D01*
X176580552Y-119684974D01*
X176561832Y-119671090D01*
X176544562Y-119655438D01*
X176528910Y-119638168D01*
X176515026Y-119619448D01*
X176503044Y-119599457D01*
X176493079Y-119578387D01*
X176485227Y-119556443D01*
X176479563Y-119533834D01*
X176476144Y-119510779D01*
X176475000Y-119487500D01*
X176475000Y-119012500D01*
X176476144Y-118989221D01*
X176479563Y-118966166D01*
X176485227Y-118943557D01*
X176493079Y-118921613D01*
X176503044Y-118900543D01*
X176515026Y-118880552D01*
X176528910Y-118861832D01*
X176544562Y-118844562D01*
X176561832Y-118828910D01*
X176580552Y-118815026D01*
X176600543Y-118803044D01*
X176621613Y-118793079D01*
X176643557Y-118785227D01*
X176666166Y-118779563D01*
X176689221Y-118776144D01*
X176712500Y-118775000D01*
X177287500Y-118775000D01*
X177310779Y-118776144D01*
G37*
G04 #@! TD.AperFunction*
G04 #@! TA.AperFunction,SMDPad,CuDef*
G36*
X175560779Y-118776144D02*
G01*
X175583834Y-118779563D01*
X175606443Y-118785227D01*
X175628387Y-118793079D01*
X175649457Y-118803044D01*
X175669448Y-118815026D01*
X175688168Y-118828910D01*
X175705438Y-118844562D01*
X175721090Y-118861832D01*
X175734974Y-118880552D01*
X175746956Y-118900543D01*
X175756921Y-118921613D01*
X175764773Y-118943557D01*
X175770437Y-118966166D01*
X175773856Y-118989221D01*
X175775000Y-119012500D01*
X175775000Y-119487500D01*
X175773856Y-119510779D01*
X175770437Y-119533834D01*
X175764773Y-119556443D01*
X175756921Y-119578387D01*
X175746956Y-119599457D01*
X175734974Y-119619448D01*
X175721090Y-119638168D01*
X175705438Y-119655438D01*
X175688168Y-119671090D01*
X175669448Y-119684974D01*
X175649457Y-119696956D01*
X175628387Y-119706921D01*
X175606443Y-119714773D01*
X175583834Y-119720437D01*
X175560779Y-119723856D01*
X175537500Y-119725000D01*
X174962500Y-119725000D01*
X174939221Y-119723856D01*
X174916166Y-119720437D01*
X174893557Y-119714773D01*
X174871613Y-119706921D01*
X174850543Y-119696956D01*
X174830552Y-119684974D01*
X174811832Y-119671090D01*
X174794562Y-119655438D01*
X174778910Y-119638168D01*
X174765026Y-119619448D01*
X174753044Y-119599457D01*
X174743079Y-119578387D01*
X174735227Y-119556443D01*
X174729563Y-119533834D01*
X174726144Y-119510779D01*
X174725000Y-119487500D01*
X174725000Y-119012500D01*
X174726144Y-118989221D01*
X174729563Y-118966166D01*
X174735227Y-118943557D01*
X174743079Y-118921613D01*
X174753044Y-118900543D01*
X174765026Y-118880552D01*
X174778910Y-118861832D01*
X174794562Y-118844562D01*
X174811832Y-118828910D01*
X174830552Y-118815026D01*
X174850543Y-118803044D01*
X174871613Y-118793079D01*
X174893557Y-118785227D01*
X174916166Y-118779563D01*
X174939221Y-118776144D01*
X174962500Y-118775000D01*
X175537500Y-118775000D01*
X175560779Y-118776144D01*
G37*
G04 #@! TD.AperFunction*
G04 #@! TA.AperFunction,SMDPad,CuDef*
G36*
X178260779Y-125476144D02*
G01*
X178283834Y-125479563D01*
X178306443Y-125485227D01*
X178328387Y-125493079D01*
X178349457Y-125503044D01*
X178369448Y-125515026D01*
X178388168Y-125528910D01*
X178405438Y-125544562D01*
X178421090Y-125561832D01*
X178434974Y-125580552D01*
X178446956Y-125600543D01*
X178456921Y-125621613D01*
X178464773Y-125643557D01*
X178470437Y-125666166D01*
X178473856Y-125689221D01*
X178475000Y-125712500D01*
X178475000Y-126287500D01*
X178473856Y-126310779D01*
X178470437Y-126333834D01*
X178464773Y-126356443D01*
X178456921Y-126378387D01*
X178446956Y-126399457D01*
X178434974Y-126419448D01*
X178421090Y-126438168D01*
X178405438Y-126455438D01*
X178388168Y-126471090D01*
X178369448Y-126484974D01*
X178349457Y-126496956D01*
X178328387Y-126506921D01*
X178306443Y-126514773D01*
X178283834Y-126520437D01*
X178260779Y-126523856D01*
X178237500Y-126525000D01*
X177762500Y-126525000D01*
X177739221Y-126523856D01*
X177716166Y-126520437D01*
X177693557Y-126514773D01*
X177671613Y-126506921D01*
X177650543Y-126496956D01*
X177630552Y-126484974D01*
X177611832Y-126471090D01*
X177594562Y-126455438D01*
X177578910Y-126438168D01*
X177565026Y-126419448D01*
X177553044Y-126399457D01*
X177543079Y-126378387D01*
X177535227Y-126356443D01*
X177529563Y-126333834D01*
X177526144Y-126310779D01*
X177525000Y-126287500D01*
X177525000Y-125712500D01*
X177526144Y-125689221D01*
X177529563Y-125666166D01*
X177535227Y-125643557D01*
X177543079Y-125621613D01*
X177553044Y-125600543D01*
X177565026Y-125580552D01*
X177578910Y-125561832D01*
X177594562Y-125544562D01*
X177611832Y-125528910D01*
X177630552Y-125515026D01*
X177650543Y-125503044D01*
X177671613Y-125493079D01*
X177693557Y-125485227D01*
X177716166Y-125479563D01*
X177739221Y-125476144D01*
X177762500Y-125475000D01*
X178237500Y-125475000D01*
X178260779Y-125476144D01*
G37*
G04 #@! TD.AperFunction*
G04 #@! TA.AperFunction,SMDPad,CuDef*
G36*
X178260779Y-123726144D02*
G01*
X178283834Y-123729563D01*
X178306443Y-123735227D01*
X178328387Y-123743079D01*
X178349457Y-123753044D01*
X178369448Y-123765026D01*
X178388168Y-123778910D01*
X178405438Y-123794562D01*
X178421090Y-123811832D01*
X178434974Y-123830552D01*
X178446956Y-123850543D01*
X178456921Y-123871613D01*
X178464773Y-123893557D01*
X178470437Y-123916166D01*
X178473856Y-123939221D01*
X178475000Y-123962500D01*
X178475000Y-124537500D01*
X178473856Y-124560779D01*
X178470437Y-124583834D01*
X178464773Y-124606443D01*
X178456921Y-124628387D01*
X178446956Y-124649457D01*
X178434974Y-124669448D01*
X178421090Y-124688168D01*
X178405438Y-124705438D01*
X178388168Y-124721090D01*
X178369448Y-124734974D01*
X178349457Y-124746956D01*
X178328387Y-124756921D01*
X178306443Y-124764773D01*
X178283834Y-124770437D01*
X178260779Y-124773856D01*
X178237500Y-124775000D01*
X177762500Y-124775000D01*
X177739221Y-124773856D01*
X177716166Y-124770437D01*
X177693557Y-124764773D01*
X177671613Y-124756921D01*
X177650543Y-124746956D01*
X177630552Y-124734974D01*
X177611832Y-124721090D01*
X177594562Y-124705438D01*
X177578910Y-124688168D01*
X177565026Y-124669448D01*
X177553044Y-124649457D01*
X177543079Y-124628387D01*
X177535227Y-124606443D01*
X177529563Y-124583834D01*
X177526144Y-124560779D01*
X177525000Y-124537500D01*
X177525000Y-123962500D01*
X177526144Y-123939221D01*
X177529563Y-123916166D01*
X177535227Y-123893557D01*
X177543079Y-123871613D01*
X177553044Y-123850543D01*
X177565026Y-123830552D01*
X177578910Y-123811832D01*
X177594562Y-123794562D01*
X177611832Y-123778910D01*
X177630552Y-123765026D01*
X177650543Y-123753044D01*
X177671613Y-123743079D01*
X177693557Y-123735227D01*
X177716166Y-123729563D01*
X177739221Y-123726144D01*
X177762500Y-123725000D01*
X178237500Y-123725000D01*
X178260779Y-123726144D01*
G37*
G04 #@! TD.AperFunction*
D13*
X166025000Y-130750000D03*
X173975000Y-130750000D03*
X166025000Y-126250000D03*
X173975000Y-126250000D03*
D14*
X183845000Y-124800000D03*
X185115000Y-124800000D03*
X187655000Y-124800000D03*
X187655000Y-129700000D03*
X186385000Y-129700000D03*
X185115000Y-129700000D03*
X183845000Y-129700000D03*
X186385000Y-124800000D03*
D15*
X194140000Y-115824000D03*
X201760000Y-115824000D03*
X119380000Y-115824000D03*
X111760000Y-115824000D03*
D16*
X147500000Y-132000000D03*
X136125000Y-118975000D03*
X154000000Y-119500000D03*
X145000000Y-110000000D03*
X196596000Y-122428000D03*
X108000000Y-129500000D03*
X136500000Y-130500000D03*
X182500000Y-126500000D03*
X191500000Y-131000000D03*
X145750000Y-125500000D03*
X148250000Y-122250000D03*
X184750000Y-111500000D03*
X189000000Y-111500000D03*
X153800000Y-122000000D03*
X199500000Y-128000000D03*
X163500000Y-117500000D03*
X169000000Y-113500000D03*
X190000000Y-112000000D03*
X175500000Y-121500000D03*
X129500000Y-128000000D03*
X136500000Y-128000000D03*
X161000000Y-121000000D03*
X178000000Y-127500000D03*
X174000000Y-128000000D03*
X184000000Y-120500000D03*
D17*
X147500000Y-130350000D02*
X136125000Y-118975000D01*
X147500000Y-132000000D02*
X147500000Y-130350000D01*
X147500000Y-126000000D02*
X154000000Y-119500000D01*
X147500000Y-132000000D02*
X147500000Y-126000000D01*
X145574681Y-109425319D02*
X161425319Y-109425319D01*
X145000000Y-110000000D02*
X145574681Y-109425319D01*
X161425319Y-109425319D02*
X167000000Y-115000000D01*
X167000000Y-115000000D02*
X186750000Y-115000000D01*
X183825000Y-129700000D02*
X183845000Y-129700000D01*
X182250000Y-131275000D02*
X183825000Y-129700000D01*
X182250000Y-131750000D02*
X182250000Y-131275000D01*
X188270000Y-122750000D02*
X187655000Y-123365000D01*
X187655000Y-123365000D02*
X187655000Y-124800000D01*
X188270000Y-116520000D02*
X188270000Y-122750000D01*
X186750000Y-115000000D02*
X188270000Y-116520000D01*
X187655000Y-126050000D02*
X186705000Y-127000000D01*
X187655000Y-124800000D02*
X187655000Y-126050000D01*
X183845000Y-128450000D02*
X183845000Y-129700000D01*
X185295000Y-127000000D02*
X183845000Y-128450000D01*
X186705000Y-127000000D02*
X185295000Y-127000000D01*
X190688000Y-116520000D02*
X196596000Y-122428000D01*
X188270000Y-116520000D02*
X190688000Y-116520000D01*
X108000000Y-129500000D02*
X109000000Y-130500000D01*
X178250000Y-130750000D02*
X182500000Y-126500000D01*
X173975000Y-130750000D02*
X178250000Y-130750000D01*
X182500000Y-126145000D02*
X183845000Y-124800000D01*
X182500000Y-126500000D02*
X182500000Y-126145000D01*
X182320000Y-122025000D02*
X180500000Y-122025000D01*
X183845000Y-123550000D02*
X182320000Y-122025000D01*
X183845000Y-124800000D02*
X183845000Y-123550000D01*
X190750000Y-131750000D02*
X191500000Y-131000000D01*
X188500000Y-131750000D02*
X190750000Y-131750000D01*
X148250000Y-123000000D02*
X148250000Y-122250000D01*
X145750000Y-125500000D02*
X148250000Y-123000000D01*
X184750000Y-111500000D02*
X189000000Y-111500000D01*
X153800000Y-122000000D02*
X155437500Y-122000000D01*
X196500000Y-131000000D02*
X199500000Y-128000000D01*
X191500000Y-131000000D02*
X196500000Y-131000000D01*
X124500000Y-130500000D02*
X124500000Y-127500000D01*
X109000000Y-130500000D02*
X124500000Y-130500000D01*
X124500000Y-130500000D02*
X136500000Y-130500000D01*
X124500000Y-127500000D02*
X134500000Y-117500000D01*
X143500000Y-117500000D02*
X148250000Y-122250000D01*
X134500000Y-117500000D02*
X143500000Y-117500000D01*
D18*
X185115000Y-131160000D02*
X185115000Y-129700000D01*
X184525000Y-131750000D02*
X185115000Y-131160000D01*
X184000000Y-131750000D02*
X184525000Y-131750000D01*
X185115000Y-130640000D02*
X185115000Y-129700000D01*
X186225000Y-131750000D02*
X185115000Y-130640000D01*
X186750000Y-131750000D02*
X186225000Y-131750000D01*
X185115000Y-129700000D02*
X186385000Y-129700000D01*
D17*
X188500000Y-113500000D02*
X190000000Y-112000000D01*
X169000000Y-113500000D02*
X188500000Y-113500000D01*
X180462500Y-124250000D02*
X178000000Y-124250000D01*
X180500000Y-124287500D02*
X180462500Y-124250000D01*
X180500000Y-125000000D02*
X180500000Y-124287500D01*
X178000000Y-124000000D02*
X178000000Y-124250000D01*
X171500000Y-117500000D02*
X178000000Y-124000000D01*
X163500000Y-117500000D02*
X171500000Y-117500000D01*
D18*
X175250000Y-118775000D02*
X175250000Y-119250000D01*
X172975000Y-116500000D02*
X175250000Y-118775000D01*
X159500000Y-117250000D02*
X160250000Y-116500000D01*
X159500000Y-121500000D02*
X159500000Y-117250000D01*
X159000000Y-122000000D02*
X159500000Y-121500000D01*
X160250000Y-116500000D02*
X172975000Y-116500000D01*
X157062500Y-122000000D02*
X159000000Y-122000000D01*
X129500000Y-128000000D02*
X136500000Y-128000000D01*
X186385000Y-124800000D02*
X186385000Y-120885000D01*
X184750000Y-119250000D02*
X177000000Y-119250000D01*
X186385000Y-120885000D02*
X184750000Y-119250000D01*
X166025000Y-126025000D02*
X166025000Y-126250000D01*
X161000000Y-121000000D02*
X166025000Y-126025000D01*
X178000000Y-127500000D02*
X178000000Y-126000000D01*
X174000000Y-126275000D02*
X173975000Y-126250000D01*
X174000000Y-128000000D02*
X174000000Y-126275000D01*
X184096410Y-120500000D02*
X184000000Y-120500000D01*
X185115000Y-121518590D02*
X184096410Y-120500000D01*
X185115000Y-124800000D02*
X185115000Y-121518590D01*
M02*
